<?xml version="1.0" encoding="utf-8" ?>
<svg xmlns="http://www.w3.org/2000/svg" xmlns:xlink="http://www.w3.org/1999/xlink" width="1024" height="1024">
	<path fill="#EAF2F7" fill-opacity="0.29803923" d="M0 0L1024 0L1024 1024L0 1024L0 0Z"/>
	<path fill="#EF6829" d="M892.475 376.303C896.584 376.278 901.212 381.209 904.235 383.775C906.39 381.662 908.718 379.337 911.471 378.048C913.92 376.901 915.878 376.425 918.464 377.339C919.504 378.356 920.031 379.186 920.017 380.695C919.974 385.562 915.386 389.516 912.312 392.741L914.809 395.208C917.074 397.45 920.615 400.433 920.226 403.993C919.994 406.12 918.236 407.42 916.716 408.681C915.945 408.944 915.037 409.317 914.228 409.4C910.816 409.747 905.813 403.836 903.505 401.653C901.076 403.849 896.891 408.513 893.505 408.955C892.126 409.136 890.868 408.813 889.755 407.977C888.312 406.893 887.33 405.076 887.305 403.259C887.255 399.538 892.002 395.685 894.431 393.278C892.589 391.33 890.597 389.372 889.081 387.154C887.861 385.368 887.041 383.242 887.702 381.072C888.426 378.701 890.537 377.57 892.475 376.303Z"/>
	<path fill="#122C6B" d="M579.518 840.477L632.571 840.486C632.639 846.977 632.558 853.477 632.543 859.969L618.494 859.829C618.422 878.326 618.099 896.928 618.638 915.414C623.089 915.518 627.554 915.469 632.007 915.494L631.789 934.927C614.49 935.544 596.97 934.975 579.646 934.984C580.241 928.559 580.026 922.052 580.001 915.606L593.353 915.638C594.293 896.923 593.757 877.911 593.636 859.168L579.473 859.23L579.518 840.477Z"/>
	<path fill="#122C6B" d="M494.917 840.441L570.886 840.355Q570.873 849.927 570.743 859.498L520.104 859.476L520.06 883.771C533.093 883.994 546.144 883.717 559.181 883.798C559.676 889.886 559.402 896.122 559.375 902.232L520.329 902.333Q520.162 918.594 520.257 934.856L494.548 934.927L494.917 840.441Z"/>
	<path fill="#122C6B" d="M696.266 840.742C698.861 840.729 701.483 840.873 704.078 840.945C707.823 851.97 713.411 862.601 718.071 873.286L734.059 909.009C737.887 917.595 741.432 926.299 745.511 934.771C736.966 934.97 728.359 934.694 719.808 934.636Q716.169 926.025 712.423 917.46L691.353 917.373C685.454 917.18 679.53 917.233 673.627 917.193Q670.552 926.051 667.312 934.85L640.633 934.951C649.29 915.976 657.837 896.904 666.138 877.77C671.488 865.437 676.257 852.874 682.482 840.94L696.266 840.742Z"/>
	<path fill="#EAF2F7" fill-opacity="0.29803923" d="M692.541 866.798C696.853 874.267 701.504 890.315 704.596 899.06L692.098 899.11Q686.145 899.165 680.196 898.925C681.607 893.542 684.332 888.21 686.425 883.052C688.603 877.685 690.406 872.182 692.541 866.798Z"/>
	<path fill="#122C6B" d="M419.411 840.432L443.979 840.506C450.488 854.598 455.852 869.211 461.731 883.569C468.786 900.799 476.317 917.825 483.574 934.97L457.3 935.01C455.158 928.796 452.534 922.76 450.002 916.698L445.413 916.623Q428.844 916.777 412.275 916.576C410.355 922.76 407.987 928.849 405.901 934.986L380.156 934.985L419.411 840.432Z"/>
	<path fill="#EAF2F7" fill-opacity="0.29803923" d="M431.699 865.251C434.267 867.28 442.511 893.047 443.687 897.572C440.34 897.732 436.976 897.742 433.625 897.811Q426.84 897.862 420.059 897.637Q425.118 881.17 431.699 865.251Z"/>
	<path fill="#122C6B" d="M344.502 840.457L369.508 840.466L369.528 934.024L369.181 934.719C363.465 935.979 350.917 935.018 344.477 934.997L344.59 899.479L305.681 899.484Q305.566 917.219 305.948 934.949L281.121 934.857L281.084 840.616C289.178 840.597 297.56 840.128 305.616 840.785L305.63 878.507L344.413 878.424C344.653 865.781 344.486 853.104 344.502 840.457Z"/>
	<path fill="#8ED0F2" d="M936.019 518.851C939.736 523.045 941.727 532.301 943.302 537.732C950.049 561.004 953.67 578.244 955.16 602.583C955.645 610.506 956.115 618.451 955.651 626.386C953.718 659.437 940.545 691.068 925.644 720.137C920.66 729.861 915.36 740.604 907.853 748.65C907.599 740.712 909.421 716.451 906.402 710.531C903.302 708.377 895.719 709.394 891.969 709.453L891.983 668.069C891.988 661.393 892.54 654.381 891.936 647.755C891.762 645.849 891.524 643.272 890.159 641.814C883.737 639.163 869.673 640.497 862.497 640.537L862.371 606.477C876.431 602.999 901.547 590.542 911.827 580.374C928.913 563.474 935.78 542.38 936.019 518.851Z"/>
	<path fill="#8ED0F2" d="M614.81 130.39Q615.866 129.181 616.952 127.998Q618.038 126.816 619.152 125.66Q620.266 124.504 621.409 123.376Q622.551 122.248 623.72 121.148Q624.89 120.048 626.086 118.977Q627.282 117.906 628.504 116.864Q629.726 115.823 630.973 114.812Q632.22 113.801 633.491 112.82Q634.762 111.84 636.057 110.891Q637.352 109.942 638.67 109.025Q639.988 108.108 641.328 107.223Q642.667 106.339 644.029 105.487Q645.39 104.636 646.771 103.818Q648.153 103 649.554 102.216Q650.955 101.432 652.375 100.682Q653.794 99.933 655.232 99.2186Q656.67 98.5041 658.125 97.8251Q659.579 97.146 661.05 96.5027Q662.521 95.8594 664.008 95.2523Q665.494 94.6452 666.994 94.0747Q668.495 93.5041 670.009 92.9704Q671.523 92.4367 673.05 91.9402Q674.577 91.4438 676.115 90.9848Q677.654 90.5258 679.203 90.1046Q680.752 89.6833 682.311 89.3001Q683.871 88.9169 685.439 88.572Q687.006 88.2271 688.582 87.9206Q690.158 87.6141 691.741 87.3462Q693.324 87.0784 694.913 86.8493Q696.502 86.6203 698.097 86.4302Q699.691 86.2401 701.289 86.0891Q702.887 85.938 704.489 85.8261C741.024 83.2807 778.296 94.593 806.043 118.943C825.298 135.84 841.987 159.512 848.826 184.293C851.05 192.351 851.743 200.537 853.552 208.635C881.903 260.995 872.832 316.709 861.495 372.274C857.312 392.78 852.323 414.441 854.596 435.465C874.723 435.758 896.873 447.798 910.615 462.053C926.346 478.372 934.111 496.36 936.019 518.851C935.78 542.38 928.913 563.474 911.827 580.374C901.547 590.542 876.431 602.999 862.371 606.477L862.497 640.537C869.673 640.497 883.737 639.163 890.159 641.814C891.524 643.272 891.762 645.849 891.936 647.755C892.54 654.381 891.988 661.393 891.983 668.069L891.969 709.453C895.719 709.394 903.302 708.377 906.402 710.531C909.421 716.451 907.599 740.712 907.853 748.65C906.907 752.789 907.538 758.507 907.549 762.818Q907.687 777.575 907.485 792.331Q798.553 791.745 689.621 792.365L356.166 791.79L199.943 791.796L152.429 791.679C143.585 791.649 134.399 792.093 125.6 791.244C114.354 790.159 104.396 785.626 97.1494 776.78C89.8295 767.845 85.5804 755.87 86.7328 744.289C87.9848 731.709 94.3004 721.557 103.902 713.618C102.611 713.004 101.091 712.868 99.7468 712.235C94.1571 709.599 85.8153 702.581 83.6264 696.67C80.5534 693.464 77.8933 690.268 75.8995 686.267C70.3888 675.211 70.9927 664.079 74.7805 652.666C70.6237 645.067 70.6621 627.901 70.7598 618.916C71.1767 580.577 80.5712 547.815 101.133 515.459C110.107 501.339 120.728 490.108 123.081 472.609C125.08 457.741 119.163 443.194 115.578 429.015C108.64 401.568 107.385 373.831 113.933 346.18C117.894 329.453 124.8 313.585 133.411 298.75C137.368 291.933 148.313 281.349 148.992 273.918C149.105 272.687 149.247 271.46 149.373 270.23L149.474 201.082C154.801 197.059 161.134 193.965 166.876 190.53C182.385 181.249 198.053 172.436 213.769 163.529C241.008 148.09 267.601 131.448 294.823 115.949C301.615 119.402 308.159 123.518 314.749 127.346L347.11 146.038C353.374 141.157 359.063 135.551 365.314 130.634Q369.026 127.689 372.877 124.929Q376.728 122.168 380.708 119.598Q384.689 117.029 388.79 114.656Q392.891 112.283 397.103 110.113Q401.315 107.942 405.628 105.98Q409.94 104.017 414.343 102.267Q418.746 100.517 423.229 98.9833Q427.713 97.4496 432.265 96.1361C480.493 82.1216 535.312 87.7883 580.222 109.755C592.208 115.618 602.468 123.696 614.077 129.997L614.81 130.39Z"/>
	<path fill="#EF6829" d="M207.159 389.465C207.748 389.421 208.41 389.343 209.005 389.397C213.386 389.797 217.04 395.004 219.641 398.111C222.376 395.63 225.675 390.528 229.266 389.699C230.652 389.379 231.816 389.656 232.985 390.435C234.273 391.294 235.417 392.437 235.516 394.081C235.748 397.963 229.982 402.331 227.367 404.805C229.986 406.793 235.24 409.867 235.46 413.512C235.589 415.642 234.052 416.84 232.663 418.175C232.2 418.27 231.738 418.371 231.27 418.435C227.608 418.93 222.215 413.147 219.301 410.899C216.961 413.09 213.121 419.144 209.632 418.851C208.256 418.736 206.631 417.676 205.693 416.695C204.781 415.742 204.276 414.576 204.429 413.233C204.878 409.281 209.688 405.918 212.481 403.564C209.734 401.463 204.243 398.242 204.158 394.325C204.109 392.079 205.642 390.835 207.159 389.465Z"/>
	<path fill="#EF6829" d="M155.677 459.922C159.916 461.788 163.116 465.685 166.247 468.972C168.664 466.261 172.233 461.557 175.789 460.603C177.007 460.277 178.16 460.251 179.262 460.951C180.664 461.841 181.699 463.598 181.816 465.248C182.055 468.63 176.136 473.719 173.927 476.153C176.402 478.573 179.544 481.152 181.289 484.171C182.073 485.526 182.535 487.058 181.899 488.584C181.033 490.661 178.994 491.369 177.08 492.168C172.916 490.236 169.675 486.538 166.427 483.368C163.68 486.18 160.379 490.32 156.567 491.502C155.334 491.884 154.062 491.872 152.945 491.148C151.344 490.11 150.69 488.257 150.159 486.526C150.573 482.861 154.197 481.315 156.578 478.945C157.202 478.324 157.846 477.65 157.766 476.727C157.491 473.558 152.822 471.305 150.865 469.036C150.032 468.071 149.585 466.979 149.793 465.691C150.17 463.352 153.767 460.983 155.677 459.922Z"/>
	<path fill="#EF6829" d="M516.255 202.946C519.118 200.715 522.351 195.967 526.262 195.974C527.738 195.977 528.704 196.317 529.792 197.326C530.841 198.299 531.298 199.842 531.362 201.233C531.589 206.187 526.866 208.766 523.99 212.118L523.597 212.583C526.576 214.812 531.615 218.197 532.477 222.057C532.747 223.269 532.67 224.464 531.917 225.5C530.56 227.367 528.051 227.812 525.964 228.352C522.267 226.594 519.321 223.049 516.084 220.498C513.925 223.139 511.08 227.714 507.462 228.204C505.713 228.441 504.133 227.844 502.819 226.712C501.84 225.87 501.122 224.317 501.191 223.018C501.411 218.884 506.665 214.945 509.432 212.145C507.088 209.796 504.161 207.307 502.556 204.369C501.803 202.991 501.402 201.488 502.002 199.956C502.827 197.849 504.79 196.95 506.692 196.012C507.122 196.024 507.553 196.029 507.981 196.074C511.756 196.47 514.073 200.238 516.255 202.946Z"/>
	<path fill="#EAF2F7" fill-opacity="0.29803923" d="M158.338 211.001C173.95 218.077 187.557 229.642 202.921 237.292C187.104 244.954 169.94 253.696 158.51 267.475C158.16 248.715 159.462 229.716 158.338 211.001Z"/>
	<path fill="#122C6B" d="M336.445 690.889C328.046 691.158 319.596 691.019 311.19 691.061C304.814 691.093 297.769 691.741 291.511 690.523C287.91 689.822 284.41 688.319 281.53 686.029C277.577 682.885 274.155 677.254 273.631 672.237C272.167 658.214 273.085 642.706 273.03 628.549Q272.919 579.393 273.363 530.242L273.371 451.119C273.392 439.361 272.539 425.953 273.674 414.377C274.119 409.846 276.111 405.478 279.072 402.042C282.428 398.146 286.992 395.608 292.004 394.561C300.708 392.742 312.281 393.948 321.327 393.962L378.725 393.964C388.674 393.994 399.208 394.759 409.1 394.002L409.757 393.947L409.718 394.28L410.999 394.152C411.765 395.057 411.538 397.888 411.586 399.169L411.546 414.021L335.895 414.081C322.008 414.076 307.882 413.574 294.028 414.456L293.874 656.251L338.308 656.014C335.742 667.495 336.416 679.196 336.445 690.889Z"/>
	<path fill="#EAF2F7" fill-opacity="0.29803923" d="M117.343 631.484C105.674 627.003 96.6949 618.735 91.1384 607.509C85.8779 596.88 85.3015 585.847 89.1955 574.667C93.0084 563.72 101.506 553.789 112.046 548.808C116.672 546.621 121.94 545.178 127.049 544.809C136.175 544.148 251.234 544.093 254.537 545.285C255.486 546.288 256.276 547.109 256.466 548.564C256.619 549.731 256.176 550.8 255.318 551.591C251.521 555.091 238.914 553.28 233.996 553.088C222.157 560.699 213.292 566.81 210.108 581.623Q209.916 582.551 209.77 583.488Q209.624 584.424 209.524 585.367Q209.423 586.31 209.369 587.256Q209.314 588.202 209.306 589.15Q209.297 590.098 209.335 591.045Q209.372 591.992 209.456 592.937Q209.54 593.881 209.669 594.82Q209.799 595.759 209.973 596.691Q210.148 597.622 210.368 598.544Q210.589 599.466 210.853 600.377Q211.118 601.287 211.426 602.183Q211.735 603.079 212.087 603.96Q212.438 604.84 212.832 605.702Q213.227 606.564 213.662 607.406Q214.098 608.248 214.574 609.068Q215.05 609.887 215.565 610.683C220.537 618.234 227.051 620.003 233.963 624.889C239.536 624.843 253.71 623.283 257.819 627.612C258.341 628.162 258.292 628.751 258.421 629.468C257.862 631.035 256.907 632.016 255.817 633.225C254.869 633.471 254.168 633.623 253.189 633.532C246.002 632.534 237.645 633.549 230.313 633.392Q195.228 632.764 160.138 632.629C146.117 632.572 131.144 633.713 117.343 631.484Z"/>
	<path fill="#122C6B" d="M117.343 631.484C105.674 627.003 96.6949 618.735 91.1384 607.509C85.8779 596.88 85.3015 585.847 89.1955 574.667C93.0084 563.72 101.506 553.789 112.046 548.808C116.672 546.621 121.94 545.178 127.049 544.809C136.175 544.148 251.234 544.093 254.537 545.285C255.486 546.288 256.276 547.109 256.466 548.564C256.619 549.731 256.176 550.8 255.318 551.591C251.521 555.091 238.914 553.28 233.996 553.088L162.045 552.923C150.24 552.934 133.004 551.657 121.989 554.167C116.099 555.509 110.513 559.074 106.254 563.297C99.3586 570.134 95.2433 578.937 95.282 588.721C95.3182 597.886 98.6551 607.273 105.234 613.776Q106.185 614.706 107.2 615.566Q108.214 616.426 109.288 617.211Q110.361 617.997 111.487 618.704Q112.614 619.411 113.788 620.036Q114.962 620.661 116.177 621.201Q117.393 621.741 118.643 622.193Q119.894 622.645 121.174 623.007Q122.454 623.369 123.756 623.639C134.208 625.866 153.059 624.769 164.336 624.822C183.782 624.915 203.332 625.481 222.765 625.24C226.49 625.193 230.244 625.116 233.963 624.889C239.536 624.843 253.71 623.283 257.819 627.612C258.341 628.162 258.292 628.751 258.421 629.468C257.862 631.035 256.907 632.016 255.817 633.225C254.869 633.471 254.168 633.623 253.189 633.532C246.002 632.534 237.645 633.549 230.313 633.392Q195.228 632.764 160.138 632.629C146.117 632.572 131.144 633.713 117.343 631.484Z"/>
	<path fill="#122C6B" d="M585.435 394.08Q633.971 393.686 682.508 393.793L704.309 393.935C710.168 393.952 716.335 393.649 722.132 394.637C725.995 395.296 730.609 397.602 733.441 400.349C737.767 404.544 740.362 409.976 741.213 415.912C742.27 423.29 741.551 431.533 741.539 439.011L741.56 484.753L741.544 664.295C741.494 671.977 740.09 678.055 734.374 683.683C731.515 686.497 728.686 688.064 724.791 689.029C715.751 691.268 705.286 690.411 696.001 690.426C681.951 690.447 667.884 690.302 653.837 690.503C653.928 683.523 654.87 675.215 653.569 668.402C653.505 664.005 652.604 659.516 652.345 655.089Q685.921 654.954 719.495 655.163L719.335 413.923L585.442 414.036Q585.557 404.058 585.435 394.08Z"/>
	<path fill="#EF6829" d="M117.343 631.484C131.144 633.713 146.117 632.572 160.138 632.629Q195.228 632.764 230.313 633.392C237.645 633.549 246.002 632.534 253.189 633.532C242.627 640.778 234.681 649.253 232.316 662.294C230.409 672.806 232.145 683.988 238.416 692.777C243.071 699.302 248.05 701.193 254.597 705.129C249.378 706.983 220.039 705.985 212.414 705.985L134.225 705.904C130.237 705.903 121.666 706.668 118.451 706.343C113.397 708.44 108.568 710.75 103.902 713.618C102.611 713.004 101.091 712.868 99.7468 712.235C94.1571 709.599 85.8153 702.581 83.6264 696.67C80.5534 693.464 77.8933 690.268 75.8995 686.267C70.3888 675.211 70.9927 664.079 74.7805 652.666C76.7195 648.648 79.1573 644.971 82.3532 641.84C92.2451 632.148 104.262 631.436 117.343 631.484Z"/>
	<path fill="#8ED0F2" d="M83.6264 696.67C97.3622 707.227 102.288 704.538 118.451 706.343C113.397 708.44 108.568 710.75 103.902 713.618C102.611 713.004 101.091 712.868 99.7468 712.235C94.1571 709.599 85.8153 702.581 83.6264 696.67Z"/>
	<path fill="#FAA975" d="M203.986 238.012C214.983 244.093 225.667 250.791 236.458 257.23L275.798 280.254C282.861 284.378 289.845 289.211 297.095 292.927L361.492 255.009C370.147 249.952 378.693 244.348 387.565 239.715C386.933 262.207 387.493 284.872 387.486 307.379C387.483 316.896 388.089 326.924 387.153 336.384C386.892 339.014 386.607 342.239 384.817 344.309C382.644 346.822 380.28 347.832 377.016 348.03C365.274 348.741 353.311 348.323 341.546 348.345L276.522 348.332L235.393 348.195C228.424 348.168 220.9 348.667 213.983 347.875C211.266 347.564 209.059 346.413 207.088 344.532C205.098 342.633 204.725 340.423 204.392 337.784C203.085 327.433 204.039 315.92 204.048 305.432Q204.198 271.722 203.986 238.012Z"/>
	<path fill="#EF6829" d="M818 606.505C798.641 599.525 788.001 596.015 773.686 579.817C759.497 563.762 751.009 541.379 752.459 519.836Q752.525 518.721 752.62 517.608Q752.714 516.495 752.836 515.384Q752.958 514.274 753.108 513.167Q753.258 512.06 753.435 510.957Q753.613 509.854 753.818 508.756Q754.022 507.658 754.255 506.566Q754.487 505.473 754.747 504.387Q755.006 503.3 755.293 502.22Q755.58 501.141 755.893 500.069Q756.207 498.997 756.547 497.933Q756.887 496.869 757.254 495.814Q757.621 494.758 758.014 493.713Q758.407 492.667 758.826 491.632Q759.245 490.596 759.69 489.572Q760.135 488.547 760.605 487.534Q761.075 486.52 761.571 485.519Q762.066 484.518 762.587 483.53Q763.107 482.541 763.652 481.566Q764.197 480.591 764.766 479.63Q765.335 478.669 765.928 477.722Q766.521 476.775 767.138 475.844Q767.754 474.912 768.394 473.996Q769.033 473.081 769.696 472.181Q770.358 471.281 771.042 470.399Q771.727 469.516 772.433 468.651Q773.14 467.785 773.868 466.938Q774.596 466.091 775.344 465.262Q776.093 464.433 776.863 463.623Q777.632 462.813 778.421 462.022Q779.21 461.232 780.019 460.462Q780.828 459.691 781.656 458.941Q782.484 458.191 783.33 457.462C803.516 440.049 828.333 433.624 854.596 435.465C874.723 435.758 896.873 447.798 910.615 462.053C926.346 478.372 934.111 496.36 936.019 518.851C935.78 542.38 928.913 563.474 911.827 580.374C901.547 590.542 876.431 602.999 862.371 606.477C847.309 609.804 833.074 610.421 818 606.505Z"/>
	<path fill="#EAF2F7" fill-opacity="0.29803923" d="M879.416 482.358C887.77 489.109 894.887 499.261 901.656 507.607C881.18 529.032 859.136 548.744 837.034 568.444Q824.156 557.771 811.497 546.839C804.224 540.612 796.419 534.583 789.811 527.647C794.855 521.058 806.823 508.643 813.393 503.253C821.851 510.416 829.851 518.11 838.344 525.256C850.798 509.936 866.25 497.143 879.416 482.358Z"/>
	<path fill="#122C6B" d="M294.823 115.949C301.615 119.402 308.159 123.518 314.749 127.346L347.11 146.038L406.777 181.558C419.704 189.268 433.03 196.798 445.322 205.481C437.721 210.204 429.822 214.408 422.135 218.985C410.591 225.858 399.207 233.01 387.565 239.715C378.693 244.348 370.147 249.952 361.492 255.009L297.095 292.927C289.845 289.211 282.861 284.378 275.798 280.254L236.458 257.23C225.667 250.791 214.983 244.093 203.986 238.012L202.921 237.292C187.557 229.642 173.95 218.077 158.338 211.001C157.202 223.742 158.094 239.064 158.083 252.149Q157.887 293.362 158.317 334.572C166.55 337.2 171.713 343.738 175.593 351.159C178.878 357.443 185.899 377.195 183.577 383.623C183.368 384.201 183.022 384.673 182.674 385.172C179.444 386.326 129.802 386.336 126.797 385.434C125.643 384.4 125.272 383.622 125.149 382.059C124.352 371.914 131.801 349.155 138.68 341.639C141.815 338.213 145.417 336.123 149.565 334.16L149.373 270.23L149.474 201.082C154.801 197.059 161.134 193.965 166.876 190.53C182.385 181.249 198.053 172.436 213.769 163.529C241.008 148.09 267.601 131.448 294.823 115.949Z"/>
	<path fill="#1681D0" d="M614.81 130.39Q615.866 129.181 616.952 127.998Q618.038 126.816 619.152 125.66Q620.266 124.504 621.409 123.376Q622.551 122.248 623.72 121.148Q624.89 120.048 626.086 118.977Q627.282 117.906 628.504 116.864Q629.726 115.823 630.973 114.812Q632.22 113.801 633.491 112.82Q634.762 111.84 636.057 110.891Q637.352 109.942 638.67 109.025Q639.988 108.108 641.328 107.223Q642.667 106.339 644.029 105.487Q645.39 104.636 646.771 103.818Q648.153 103 649.554 102.216Q650.955 101.432 652.375 100.682Q653.794 99.933 655.232 99.2186Q656.67 98.5041 658.125 97.8251Q659.579 97.146 661.05 96.5027Q662.521 95.8594 664.008 95.2523Q665.494 94.6452 666.994 94.0747Q668.495 93.5041 670.009 92.9704Q671.523 92.4367 673.05 91.9402Q674.577 91.4438 676.115 90.9848Q677.654 90.5258 679.203 90.1046Q680.752 89.6833 682.311 89.3001Q683.871 88.9169 685.439 88.572Q687.006 88.2271 688.582 87.9206Q690.158 87.6141 691.741 87.3462Q693.324 87.0784 694.913 86.8493Q696.502 86.6203 698.097 86.4302Q699.691 86.2401 701.289 86.0891Q702.887 85.938 704.489 85.8261C741.024 83.2807 778.296 94.593 806.043 118.943C825.298 135.84 841.987 159.512 848.826 184.293C851.05 192.351 851.743 200.537 853.552 208.635C853.906 245.312 848.391 273.83 824.882 303.313Q823.81 304.645 822.705 305.951Q821.6 307.256 820.464 308.534Q819.328 309.813 818.161 311.063Q816.994 312.313 815.796 313.534Q814.599 314.755 813.372 315.946Q812.145 317.138 810.89 318.299Q809.634 319.46 808.35 320.59Q807.067 321.72 805.756 322.819Q804.445 323.917 803.108 324.983Q801.771 326.049 800.408 327.082Q799.045 328.115 797.657 329.114Q796.269 330.114 794.857 331.079Q793.445 332.044 792.01 332.974Q790.575 333.905 789.118 334.8Q787.661 335.695 786.182 336.554Q784.703 337.413 783.204 338.236Q781.705 339.058 780.186 339.844Q778.667 340.63 777.129 341.378Q775.591 342.127 774.036 342.837Q772.48 343.548 770.907 344.22Q769.335 344.893 767.747 345.526Q766.158 346.16 764.555 346.755Q762.951 347.35 761.334 347.905Q759.716 348.46 758.086 348.976Q756.455 349.492 754.812 349.967Q753.17 350.443 751.516 350.878Q749.862 351.313 748.198 351.708Q746.534 352.103 744.861 352.457Q743.188 352.811 741.506 353.124Q739.825 353.437 738.136 353.708Q736.448 353.98 734.753 354.211Q733.059 354.441 731.359 354.63Q729.707 354.799 728.051 354.927Q726.396 355.056 724.738 355.144Q723.079 355.233 721.419 355.281Q719.76 355.329 718.099 355.336Q716.438 355.344 714.778 355.311Q713.118 355.278 711.459 355.205Q709.8 355.132 708.143 355.018Q706.487 354.905 704.833 354.751Q703.18 354.598 701.531 354.404Q699.881 354.21 698.237 353.976Q696.593 353.742 694.956 353.468Q693.318 353.194 691.687 352.881Q690.056 352.567 688.434 352.214Q686.811 351.861 685.198 351.468Q683.584 351.076 681.981 350.644Q680.377 350.212 678.785 349.742Q677.192 349.271 675.611 348.762Q674.031 348.253 672.463 347.706Q670.895 347.158 669.341 346.573Q667.787 345.988 666.248 345.365Q664.709 344.742 663.185 344.082Q661.661 343.422 660.154 342.725Q658.647 342.027 657.157 341.294Q655.667 340.56 654.196 339.791Q652.724 339.021 651.272 338.216Q649.82 337.411 648.387 336.571Q646.955 335.731 645.543 334.856Q644.132 333.982 642.742 333.073Q641.352 332.164 639.985 331.222Q638.618 330.279 637.274 329.304Q635.93 328.329 634.61 327.321Q633.29 326.313 631.995 325.274C604.275 302.817 585.909 267.851 582.101 232.522C577.994 194.413 591.132 159.781 614.81 130.39Z"/>
	<path fill="#EAF2F7" fill-opacity="0.29803923" d="M706.096 111.697C710.233 111.099 714.808 111.278 718.986 111.403Q721.218 111.472 723.446 111.626Q725.675 111.781 727.895 112.019Q730.116 112.258 732.326 112.581Q734.536 112.904 736.732 113.311Q738.928 113.718 741.107 114.208Q743.286 114.698 745.444 115.271Q747.603 115.843 749.738 116.498Q751.874 117.152 753.983 117.887Q756.092 118.622 758.171 119.437Q760.251 120.251 762.298 121.144Q764.345 122.038 766.357 123.008Q768.368 123.978 770.341 125.025Q772.315 126.071 774.247 127.191Q776.179 128.312 778.067 129.505Q779.955 130.698 781.796 131.962Q783.637 133.226 785.429 134.559C807.787 151.087 823.472 177.598 827.384 205.082Q827.577 206.403 827.737 207.729Q827.897 209.055 828.024 210.384Q828.151 211.714 828.244 213.046Q828.337 214.378 828.397 215.712Q828.457 217.046 828.483 218.381Q828.51 219.717 828.503 221.052Q828.495 222.387 828.455 223.722Q828.414 225.057 828.34 226.39Q828.266 227.724 828.158 229.055Q828.05 230.386 827.909 231.714Q827.768 233.042 827.594 234.366Q827.42 235.69 827.212 237.009Q827.005 238.328 826.764 239.642Q826.524 240.955 826.25 242.262Q825.977 243.57 825.671 244.869Q825.365 246.169 825.026 247.461Q824.688 248.753 824.316 250.036Q823.946 251.319 823.542 252.592Q823.139 253.865 822.704 255.127Q822.27 256.39 821.803 257.641Q821.337 258.893 820.839 260.132Q820.341 261.371 819.813 262.597Q819.284 263.824 818.725 265.036Q818.166 266.249 817.576 267.447Q816.986 268.646 816.367 269.829Q815.748 271.012 815.099 272.179Q814.45 273.346 813.772 274.497Q813.094 275.647 812.387 276.78Q811.681 277.913 810.946 279.028Q810.211 280.143 809.448 281.24Q808.686 282.336 807.896 283.413Q807.106 284.489 806.289 285.546C787.177 310.767 761.336 325.097 730.124 329.418C699.752 331.427 672.265 324.52 648.19 305.273C625.56 287.182 610.006 259.803 606.936 230.883C603.997 203.197 612.919 172.832 630.434 151.169C650.401 126.475 675.028 115.092 706.096 111.697Z"/>
	<path fill="#EF6829" d="M714.991 111.75L718.587 114.085C718.473 132.975 717.422 152.326 718.412 171.165C734.256 170.639 749.276 166.526 763.961 160.834C757.464 146.146 749.549 133.393 736.361 123.787C732.077 120.666 727.432 118.112 723.055 115.129C725.982 115.727 728.862 116.375 731.68 117.381C751.159 124.335 760.084 141.369 768.447 158.949C771.657 157.431 785.899 148.533 788.154 148.571C788.964 148.585 789.053 148.908 789.575 149.421C789.69 150.375 789.642 150.87 789.305 151.799C787.54 156.656 775.26 160.934 770.516 163.207C778.588 180.324 780.241 201.062 780.962 219.668C786.643 219.793 816.668 218.528 819.734 220.261C820.247 221.466 820.391 222.137 820.296 223.445C818.083 224.777 785.988 223.956 781.022 223.956C781.166 241.788 777.451 259.012 771.436 275.722C775.976 277.25 790.659 282.183 792.687 286.225C792.428 286.839 792.454 287.17 791.8 287.48C788.497 289.049 773.347 281.464 769.112 279.996C767.073 285.954 764.732 291.227 761.218 296.473C751.772 310.573 738.294 322.512 721.297 325.864C715.105 326.507 708.381 325.609 702.499 323.607C683.133 317.014 671.438 298.024 662.894 280.696C658.504 282.251 642.698 289.419 639.52 288.227C638.888 287.006 639.125 286.987 639.386 285.709C641.765 282.503 656.19 277.993 660.651 276.316C654.025 259.195 651.509 242.243 650.91 223.995C644.351 223.825 620.917 224.898 617.016 223.545C615.837 223.136 615.369 222.803 614.828 221.699L615.377 220.642C619.389 218.102 644.862 219.598 651.023 219.781C651.897 199.592 654.982 182.351 661.958 163.369C656.242 160.732 648.95 158.259 644.211 154.062C644.183 153.467 644.136 153.265 644.301 152.628C644.556 151.647 645.434 150.455 646.341 150.024C652.132 152.678 657.564 155.895 663.429 158.439C664.933 154.936 666.499 151.513 668.394 148.202Q672.953 140.386 678.796 133.477C688.265 122.156 697.091 117.623 711.131 113.853C705.7 117.147 700.135 120.403 695.138 124.333C683.821 133.232 672.722 147.065 668.051 160.786C683.774 166.091 696.952 169.423 713.611 171.042C714.226 160.909 712.424 117.489 714.991 111.75Z"/>
	<path fill="#EAF2F7" fill-opacity="0.29803923" d="M704.271 272.702C707.298 272.254 710.629 272.375 713.7 272.249L714.001 324.691C705.415 322.089 698.703 317.933 691.709 312.423C681.185 303.224 673.621 291.917 667.748 279.33C680.036 276.286 691.655 273.937 704.271 272.702Z"/>
	<path fill="#EAF2F7" fill-opacity="0.29803923" d="M718.445 272.306C733.469 272.687 750.362 273.644 764.639 278.832C759.964 288.805 754.5 297.806 747.149 306.032C738.962 314.43 730.058 321.255 718.516 323.979C718.313 306.761 718.46 289.525 718.445 272.306Z"/>
	<path fill="#EAF2F7" fill-opacity="0.29803923" d="M718.641 223.978Q747.586 223.816 776.53 223.989C775.577 238.993 773.074 252.743 769.201 267.224L767.087 274.587C751.365 269.891 734.817 267.988 718.457 267.934C718.305 253.292 718.564 238.623 718.641 223.978Z"/>
	<path fill="#EAF2F7" fill-opacity="0.29803923" d="M655.882 223.981L714.065 224.017L713.976 267.606L706.713 267.943C692.605 268.292 678.898 271.052 665.424 275.081C658.629 259.444 656.236 240.91 655.882 223.981Z"/>
	<path fill="#EAF2F7" fill-opacity="0.29803923" d="M765.059 166.022L765.614 166.132C767.45 168.294 768.242 172.762 769.019 175.502C773.307 190.617 775.577 203.869 776.449 219.542L731.561 219.594L718.494 219.573L718.506 175.731C734.743 175.409 749.772 171.042 765.059 166.022Z"/>
	<path fill="#EAF2F7" fill-opacity="0.29803923" d="M666.238 165.505C681.934 171.373 697.274 174.381 713.981 175.565L714.023 219.516L703.956 219.907L655.792 219.841C656.189 201.705 659.806 182.515 666.238 165.505Z"/>
	<path fill="#EAF2F7" fill-opacity="0.29803923" d="M411.586 399.169C412.021 395.379 411.95 391.508 412.358 387.692C413.675 375.361 417.457 363.054 424.182 352.594C436.882 332.838 455.313 318.391 478.542 313.406Q479.611 313.17 480.685 312.961Q481.759 312.751 482.838 312.569Q483.917 312.387 485.001 312.231Q486.084 312.076 487.171 311.948Q488.258 311.819 489.348 311.718Q490.438 311.617 491.53 311.543Q492.622 311.469 493.715 311.423Q494.809 311.376 495.903 311.357Q496.997 311.338 498.092 311.346Q499.186 311.354 500.28 311.389Q501.374 311.425 502.466 311.487Q503.559 311.55 504.65 311.64Q505.741 311.73 506.829 311.847Q507.917 311.964 509.002 312.108Q510.087 312.252 511.168 312.424Q512.249 312.595 513.325 312.793Q514.401 312.992 515.472 313.217Q516.543 313.442 517.609 313.693Q518.674 313.945 519.732 314.223Q520.791 314.501 521.842 314.806Q522.893 315.11 523.937 315.441Q524.98 315.772 526.015 316.129Q527.049 316.485 528.075 316.868Q529.1 317.25 530.116 317.658Q531.132 318.066 532.137 318.499Q533.142 318.932 534.136 319.39Q535.13 319.848 536.112 320.33Q537.094 320.813 538.064 321.32Q539.034 321.827 539.991 322.358Q540.948 322.89 541.892 323.444Q542.835 323.999 543.764 324.578Q544.693 325.156 545.608 325.757C564.183 337.85 576.284 355.978 582.044 377.182C583.56 382.765 584.227 388.445 585.435 394.08Q585.557 404.058 585.442 414.036L719.335 413.923L719.495 655.163Q685.921 654.954 652.345 655.089C652.604 659.516 653.505 664.005 653.569 668.402C652.935 706.385 653.467 744.445 653.515 782.436L638.36 782.582C640.191 778.648 641.544 775.12 641.999 770.762C642.617 764.836 642.182 758.61 642.115 752.646Q641.955 738.23 641.975 723.813L642.124 688.751C642.204 679.007 642.527 669.267 641.51 659.556C640.567 650.56 638.36 641.964 635.255 633.478C623.971 602.639 599.097 575.719 569.103 562.006C556.361 556.18 542.863 552.431 529.141 549.751Q529.13 540.869 529.58 531.999C549.324 520.399 561.839 505.72 567.77 483.278C568.7 479.76 569.366 476.244 569.582 472.61C576.744 471.573 583.442 469.628 587.979 463.49C591.31 458.983 592.59 453.014 591.567 447.517Q591.477 447.035 591.362 446.558Q591.248 446.082 591.109 445.611Q590.969 445.141 590.806 444.679Q590.643 444.216 590.456 443.763Q590.27 443.31 590.06 442.867Q589.85 442.423 589.618 441.992Q589.386 441.56 589.131 441.141Q588.877 440.721 588.602 440.316Q588.326 439.91 588.03 439.519Q587.734 439.128 587.419 438.753Q587.103 438.378 586.769 438.019Q586.434 437.661 586.082 437.32Q585.729 436.979 585.359 436.657Q584.99 436.335 584.604 436.032Q584.218 435.729 583.818 435.447Q583.417 435.165 583.002 434.903C579.035 432.397 575.45 431.867 570.908 431.85C570.855 398.961 574.709 371.563 549.079 345.76C535.794 332.385 516.474 325.314 497.757 325.438C478.624 325.565 458.495 333.106 444.962 346.825C440.354 351.496 436.752 356.915 433.689 362.699C421.861 385.032 425.07 406.978 424.788 431.151C417.626 431.468 411.331 432.168 406.214 437.845C402.474 441.994 400.627 447.842 401.123 453.387C401.625 458.997 404.744 464.189 409.18 467.595C413.631 471.01 419.36 472.471 424.905 472.621C426.426 492.396 434.841 509.951 449.959 523.029C455.064 527.445 460.84 531.094 466.726 534.373L466.913 549.534C461.504 550.496 456.001 551.339 450.716 552.858C419.382 561.866 389.382 582.495 370.713 609.28C360.176 624.398 351.619 643.448 349.563 661.925C348.747 669.262 349.094 676.802 349.151 684.175Q349.36 700.796 349.21 717.417L348.963 742.772C348.913 748.228 348.469 753.963 349.376 759.356C350.728 767.395 355.953 774.411 362.617 778.919C366.023 781.222 369.63 782.688 373.511 783.979C367.003 783.999 360.454 784.16 353.952 783.925C351.524 782.897 348.716 780.537 346.853 778.669C342.38 774.185 339.146 767.925 337.708 761.784C335.546 752.551 336.394 741.927 336.393 732.448L336.445 690.889C336.416 679.196 335.742 667.495 338.308 656.014L293.874 656.251L294.028 414.456C307.882 413.574 322.008 414.076 335.895 414.081L411.546 414.021L411.586 399.169Z"/>
	<path fill="#8ED0F2" d="M362.121 474.247Q372.166 474.017 382.211 474.214L382.198 491.962L357.804 491.996L336.497 492.02L336.434 474.434Q349.279 474.485 362.121 474.247Z"/>
	<path fill="#8ED0F2" d="M599.585 476.445L676.748 476.49L676.76 492.774Q638.288 492.411 599.814 492.489L599.585 476.445Z"/>
	<path fill="#8ED0F2" d="M599.741 507.373L676.525 507.503L676.409 524.025L599.615 523.933L599.741 507.373Z"/>
	<path fill="#8ED0F2" d="M336.973 507.448L414.352 507.459L414.169 524.497C388.358 525.332 362.355 524.364 336.508 524.75Q336.909 516.104 336.973 507.448Z"/>
	<path fill="#122C6B" d="M424.788 431.151C425.07 406.978 421.861 385.032 433.689 362.699C436.752 356.915 440.354 351.496 444.962 346.825C458.495 333.106 478.624 325.565 497.757 325.438C516.474 325.314 535.794 332.385 549.079 345.76C574.709 371.563 570.855 398.961 570.908 431.85C575.45 431.867 579.035 432.397 583.002 434.903Q583.417 435.165 583.818 435.447Q584.218 435.729 584.604 436.032Q584.99 436.335 585.359 436.657Q585.729 436.979 586.082 437.32Q586.434 437.661 586.769 438.019Q587.103 438.378 587.419 438.753Q587.734 439.128 588.03 439.519Q588.326 439.91 588.602 440.316Q588.877 440.721 589.131 441.14Q589.386 441.56 589.618 441.992Q589.85 442.423 590.06 442.867Q590.27 443.31 590.456 443.763Q590.643 444.216 590.806 444.679Q590.969 445.141 591.108 445.611Q591.248 446.082 591.362 446.558Q591.477 447.035 591.567 447.517C592.59 453.014 591.31 458.983 587.979 463.49C583.442 469.628 576.744 471.573 569.582 472.61C569.366 476.244 568.7 479.76 567.77 483.278C561.839 505.72 549.324 520.399 529.58 531.999Q529.13 540.869 529.141 549.751C542.863 552.431 556.361 556.18 569.103 562.006C599.097 575.719 623.971 602.639 635.255 633.478C638.36 641.964 640.567 650.56 641.51 659.556C642.527 669.267 642.204 679.007 642.124 688.751L641.975 723.813Q641.955 738.23 642.115 752.646C642.182 758.61 642.617 764.836 641.999 770.762C641.544 775.12 640.191 778.648 638.36 782.582L653.515 782.436L688.342 782.412L688.295 742.402C688.293 736.071 687.391 728.091 688.82 721.945C689.538 718.859 691.39 715.742 693.67 713.56C695.843 711.479 698.032 710.667 700.974 710.266C709.532 709.1 719.138 709.973 727.826 709.983L783.527 710.049L783.456 666.462C783.446 659.779 782.655 652.13 783.7 645.577C783.922 644.182 784.523 643.255 785.526 642.269C788.761 639.085 812.061 640.509 818.013 640.528L818 606.505C833.074 610.421 847.309 609.804 862.371 606.477L862.497 640.537C869.673 640.497 883.737 639.163 890.159 641.814C891.524 643.272 891.762 645.849 891.936 647.755C892.54 654.381 891.988 661.393 891.983 668.069L891.969 709.453C895.719 709.394 903.302 708.377 906.402 710.531C909.421 716.451 907.599 740.712 907.853 748.65C906.907 752.789 907.538 758.507 907.549 762.818Q907.687 777.575 907.485 792.331Q798.553 791.745 689.621 792.365L356.166 791.79L199.943 791.796L152.429 791.679C143.585 791.649 134.399 792.093 125.6 791.244C114.354 790.159 104.396 785.626 97.1494 776.78C89.8295 767.845 85.5804 755.87 86.7328 744.289C87.9848 731.709 94.3004 721.557 103.902 713.618C108.568 710.75 113.397 708.44 118.451 706.343C121.666 706.668 130.237 705.903 134.225 705.904L212.414 705.985C220.039 705.985 249.378 706.983 254.597 705.129C256.679 705.794 258.405 706.538 259.453 708.57C259.488 710.183 259.327 711.253 258.163 712.464C256.328 714.374 254.035 714.056 251.627 714.028C239.416 721.832 231.971 726.177 228.56 741.366Q228.35 742.278 228.186 743.198Q228.022 744.119 227.904 745.047Q227.787 745.975 227.715 746.908Q227.644 747.84 227.62 748.775Q227.595 749.71 227.617 750.645Q227.639 751.58 227.708 752.513Q227.777 753.446 227.892 754.374Q228.008 755.302 228.169 756.224Q228.331 757.145 228.538 758.057Q228.745 758.969 228.998 759.87Q229.251 760.77 229.548 761.657Q229.845 762.544 230.187 763.415Q230.528 764.286 230.912 765.138Q231.297 765.991 231.723 766.824Q232.15 767.656 232.617 768.466Q233.085 769.276 233.592 770.062C239.281 778.769 242.082 778.593 250.011 783.48L353.952 783.925C360.454 784.16 367.003 783.999 373.511 783.979C369.63 782.688 366.023 781.222 362.617 778.919C355.953 774.411 350.728 767.395 349.376 759.356C348.469 753.963 348.913 748.228 348.963 742.772L349.21 717.417Q349.36 700.796 349.151 684.175C349.094 676.802 348.747 669.262 349.563 661.925C351.619 643.448 360.176 624.398 370.713 609.28C389.382 582.495 419.382 561.866 450.716 552.858C456.001 551.339 461.504 550.496 466.913 549.534L466.726 534.373C460.84 531.094 455.064 527.445 449.959 523.029C434.841 509.951 426.426 492.396 424.905 472.621C419.36 472.471 413.631 471.01 409.18 467.595C404.744 464.189 401.625 458.997 401.123 453.387C400.627 447.842 402.474 441.994 406.214 437.845C411.331 432.168 417.626 431.468 424.788 431.151Z"/>
	<path fill="#EAF2F7" fill-opacity="0.29803923" d="M569.582 439.076C573.227 439.623 576.446 440.384 579.48 442.637C581.984 444.497 583.81 447.138 584.194 450.279C584.686 454.297 582.648 457.647 580.272 460.671C579.254 461.431 578.16 462.149 577.019 462.712C574.88 463.767 572.111 464.998 569.799 464.142C568.526 456.31 569.506 447.024 569.582 439.076Z"/>
	<path fill="#EAF2F7" fill-opacity="0.29803923" d="M420.031 439.151C421.555 439.211 422.833 439.23 424.263 439.84C425.251 447.191 424.687 455.693 424.362 463.125L423.551 463.823C420.819 464.511 418.119 463.716 415.593 462.65C412.442 460.444 410.219 457.945 409.391 454.087Q409.262 453.467 409.197 452.837Q409.132 452.207 409.131 451.574Q409.13 450.94 409.193 450.31Q409.256 449.68 409.383 449.059Q409.51 448.439 409.698 447.834Q409.887 447.229 410.136 446.647Q410.385 446.065 410.691 445.511Q410.998 444.956 411.359 444.436C413.552 441.297 416.372 439.893 420.031 439.151Z"/>
	<path fill="#EAF2F7" fill-opacity="0.29803923" d="M587.596 660.751C588.406 661.091 589.506 661.533 590.12 662.205C592.079 664.351 591.197 673.654 591.196 676.677L591.144 750.659C591.165 756.953 592.056 777.743 590.995 781.984C590.655 783.344 589.634 783.519 588.497 784.113C587.242 783.984 586.463 783.95 585.377 783.244C584.019 779.123 585.051 711.53 585.042 701.778C585.031 690.036 584.047 677.747 584.994 666.098C585.211 663.438 585.524 662.518 587.596 660.751Z"/>
	<path fill="#EAF2F7" fill-opacity="0.29803923" d="M410.971 661.34C412.409 661.354 413.174 661.408 414.505 662.056C415.197 662.826 415.362 663.384 415.459 664.382C416.074 670.676 415.514 677.499 415.507 683.85L415.464 725.306C436.868 728.515 458.133 732.533 479.495 735.992C492.782 738.143 506.316 739.478 519.505 742.153C521.306 742.518 522.019 742.793 523.038 744.334C522.986 745.624 522.964 745.781 522.232 746.837C518.691 748.547 513.644 746.944 509.88 746.304Q473.871 740.936 437.978 734.833C425.805 732.86 412.674 731.583 400.774 728.425C399.417 728.065 398.47 727.309 397.429 726.422L397.503 725.122L397.125 726.085C396.731 725.554 396.666 725.085 396.504 724.452L397.226 723.63C401.377 722.248 405.338 723.443 409.502 724.25Q409.726 704.532 409.678 684.813C409.644 678.193 408.725 670.36 409.72 663.87C409.876 662.857 410.388 662.154 410.971 661.34Z"/>
	<path fill="#EAF2F7" fill-opacity="0.29803923" d="M532.07 755.291C544.04 755.86 565.87 759.179 574.608 768.149C576.145 769.727 577.157 771.677 576.974 773.926C576.695 777.367 575.071 780.898 572.442 783.104C557.174 783.793 541.578 783.086 526.277 783.057C527.29 773.809 530.055 764.383 532.07 755.291Z"/>
	<path fill="#EF6829" d="M464.401 557.164C465.093 557.023 465.568 556.974 466.284 557.049C467.744 557.2 470.619 563.399 471.606 564.847C477.577 573.604 484.529 578.642 493.409 584.091C484.963 589.205 475.603 593.128 466.627 597.225L461.96 599.207C454.015 588.15 447.997 575.851 439.907 564.875C447.54 561.364 456.165 558.69 464.401 557.164Z"/>
	<path fill="#EF6829" d="M529.401 556.503Q543.294 559.888 556.498 565.374C550.829 576.491 540.706 589.495 533.624 600.147L529.221 598.046C519.781 593.649 509.082 589.608 500.503 583.747Q501.712 583.363 502.915 582.962C515.429 578.779 523.724 567.92 529.401 556.503Z"/>
	<path fill="#EAF2F7" fill-opacity="0.29803923" d="M520.28 536.542C520.709 536.494 521.17 536.667 521.589 536.763C521.892 537.68 522.006 538.335 522.038 539.315C522.372 549.881 522.118 558.747 514.299 566.82C510.015 571.243 504.078 575.152 497.73 575.114C491.389 575.075 486.784 571.459 482.505 567.228C473.655 556.551 474.619 551.132 474.694 537.947C490.69 540.982 504.564 540.943 520.28 536.542Z"/>
	<path fill="#1681D0" d="M820.223 648.745L883.129 649.021C883.806 669.152 883.194 689.454 883.398 709.613Q869.825 709.901 856.25 709.986L792.564 710.07L792.199 648.924L820.223 648.745Z"/>
	<path fill="#FAA975" d="M697.212 782.527C696.884 770.666 697.203 758.714 697.232 746.845C697.249 739.608 696.7 731.811 697.521 724.635C697.676 723.279 697.918 722.104 698.865 721.063C699.489 720.378 700.558 719.483 701.461 719.227C706.541 717.788 723.655 718.779 730.039 718.79L795.809 718.87Q796.05 750.885 795.661 782.898C762.872 782.191 730.009 782.561 697.212 782.527Z"/>
	<path fill="#EF6829" d="M795.809 718.87L899.694 718.542L899.476 783.455L795.661 782.898Q796.05 750.885 795.809 718.87Z"/>
	<path fill="#EAF2F7" fill-opacity="0.29803923" d="M250.011 783.48L246.42 783.549C222.425 783.925 198.38 783.34 174.376 783.43L144.616 783.553C137.527 783.564 130.127 784.015 123.144 782.636C116.514 781.326 111.039 778.378 106.226 773.637Q105.566 772.987 104.94 772.305Q104.314 771.623 103.722 770.91Q103.131 770.198 102.575 769.456Q102.02 768.715 101.503 767.947Q100.985 767.179 100.507 766.386Q100.029 765.593 99.5905 764.777Q99.1523 763.961 98.7554 763.125Q98.3585 762.288 98.004 761.433Q97.6494 760.577 97.338 759.705Q97.0266 758.833 96.7592 757.946Q96.4917 757.059 96.2689 756.161Q96.0461 755.262 95.8685 754.353Q95.6909 753.444 95.5589 752.527Q95.427 751.611 95.341 750.689Q95.2549 749.766 95.2151 748.841Q95.1752 747.916 95.1817 746.99C95.3196 738.433 99.2067 730.639 105.252 724.715C109.653 720.403 115.442 716.808 121.498 715.471C131.935 713.167 153.886 714.376 165.245 714.311Q208.435 713.825 251.627 714.028C239.416 721.832 231.971 726.177 228.56 741.366Q228.35 742.278 228.186 743.198Q228.022 744.119 227.904 745.047Q227.787 745.975 227.715 746.908Q227.644 747.84 227.62 748.775Q227.595 749.71 227.617 750.645Q227.639 751.58 227.708 752.513Q227.777 753.446 227.892 754.374Q228.008 755.302 228.169 756.224Q228.331 757.145 228.538 758.057Q228.745 758.969 228.998 759.87Q229.251 760.77 229.548 761.657Q229.845 762.544 230.187 763.415Q230.528 764.286 230.912 765.138Q231.297 765.991 231.723 766.824Q232.15 767.656 232.617 768.466Q233.085 769.276 233.592 770.062C239.281 778.769 242.082 778.593 250.011 783.48Z"/>
	<path fill="#EAF2F7" fill-opacity="0.29803923" d="M516.815 415.455C520.198 415.937 528.077 422.489 531.73 424.363C541.057 429.148 551.509 432.203 561.62 434.85C561.541 446.866 562.991 471.71 560.159 482.362C555.504 499.869 543.784 515.629 528.087 524.736C513.354 533.284 496.921 535.306 480.533 531.007C469.865 528.043 458.847 521.604 451.079 513.708C427.982 490.232 432.283 463.378 432.352 433.536C461.791 434.134 490.701 429.745 516.815 415.455Z"/>
</svg>
