<?xml version="1.0" encoding="utf-8" ?>
<svg xmlns="http://www.w3.org/2000/svg" xmlns:xlink="http://www.w3.org/1999/xlink" width="1024" height="1024">
	<path fill="#1EA5A7" d="M419.646 124.512C420.773 124.46 421.987 124.364 423.098 124.595C425.45 125.084 427.887 126.9 429.104 128.953Q429.322 129.312 429.501 129.692Q429.68 130.072 429.82 130.468Q429.959 130.865 430.056 131.273Q430.154 131.682 430.209 132.099Q430.264 132.515 430.276 132.935Q430.287 133.355 430.256 133.774Q430.224 134.193 430.15 134.606Q430.075 135.02 429.958 135.423C429.151 138.296 426.89 139.658 424.446 141.055C423.245 141.131 422.034 141.202 420.844 140.978C418.578 140.552 416.312 139.179 415.028 137.244C413.834 135.445 413.552 133.316 413.972 131.223C414.642 127.882 416.901 126.218 419.646 124.512Z"/>
	<path fill="#2BB5AE" d="M494.074 157.587C495.495 157.667 496.955 157.85 498.28 158.402C500.554 159.351 502.602 161.501 503.396 163.833C504.151 166.051 503.972 168.297 502.911 170.38C501.404 173.342 498.786 174.52 495.748 175.403C494.236 175.325 492.44 175.018 491.055 174.405Q490.678 174.237 490.321 174.032Q489.963 173.827 489.628 173.587Q489.292 173.347 488.983 173.075Q488.673 172.803 488.392 172.501Q488.112 172.199 487.863 171.87Q487.614 171.541 487.399 171.189Q487.184 170.837 487.006 170.466Q486.828 170.094 486.688 169.706C485.918 167.545 486.142 165.1 487.177 163.066C488.657 160.158 491.052 158.56 494.074 157.587Z"/>
	<path fill="#1EA5A7" d="M346.04 154.604C347.6 154.435 349.252 154.183 350.806 154.498C353.281 154.999 355.622 156.491 356.949 158.66C358.344 160.94 358.641 163.805 357.99 166.373C356.99 170.317 354.65 171.976 351.333 173.948C349.808 174.103 348.341 174.245 346.832 173.884C344.003 173.209 341.483 171.456 340.101 168.863Q339.862 168.417 339.67 167.948Q339.479 167.479 339.337 166.992Q339.195 166.506 339.105 166.008Q339.015 165.509 338.977 165.004Q338.939 164.499 338.954 163.993Q338.97 163.486 339.037 162.984Q339.105 162.482 339.225 161.99Q339.345 161.498 339.515 161.021C340.662 157.753 343.076 156.109 346.04 154.604Z"/>
	<path fill="#2BB5AE" d="M420.587 260.05C422.244 259.895 423.918 259.886 425.51 260.426C428.301 261.371 430.589 263.23 431.807 265.941Q432.011 266.4 432.168 266.877Q432.325 267.354 432.432 267.844Q432.54 268.335 432.597 268.833Q432.655 269.332 432.662 269.834Q432.668 270.336 432.624 270.836Q432.58 271.337 432.486 271.83Q432.391 272.323 432.248 272.804Q432.104 273.285 431.912 273.749C430.56 277.088 428.057 278.513 424.902 279.909C423.461 279.968 422.047 280.012 420.629 279.692C418.065 279.114 415.63 277.691 414.277 275.379C413.046 273.274 412.825 270.704 413.442 268.369C414.5 264.37 417.178 262.117 420.587 260.05Z"/>
	<path fill="#EB5441" d="M309.739 239.115C312.179 228.032 314.595 214.954 324.742 208.185C330.092 204.615 337 203.196 343.296 204.585C350.22 206.113 357.799 210.932 361.401 217.104C364.645 222.664 365.114 230.07 363.384 236.188C360.985 244.674 355.184 251.817 349.633 258.453Q331.979 258.345 314.325 258.484C312.958 251.968 310.782 245.732 309.739 239.115Z"/>
	<defs>
		<linearGradient id="gradient_0" gradientUnits="userSpaceOnUse" x1="328.50879" y1="334.82852" x2="267.02228" y2="228.86334">
			<stop offset="0" stop-color="black"/>
			<stop offset="1" stop-color="#122539"/>
		</linearGradient>
	</defs>
	<path fill="url(#gradient_0)" d="M257.138 258.445L257.497 258.586C258.643 263.673 257.748 270.539 257.645 275.764Q257.324 288.656 257.428 301.552Q297.518 302.194 337.612 301.976C349.717 301.959 364.985 302.925 376.728 301.425C378.939 301.143 381.06 300.489 382.712 298.914C387.035 294.794 385.478 275.496 385.372 269.025C385.32 265.816 384.673 262.693 384.574 259.564C386.237 260.896 386.983 262.154 387.335 264.227C387.894 267.523 387.878 292.957 387.362 296.739C387.056 298.987 386.396 301.239 384.982 303.051C383.489 304.966 382.201 305.455 379.815 305.772C371.072 306.935 361.741 306.217 352.902 306.188L307.438 306.142L246.928 306.156C237.57 306.163 227.76 306.893 218.456 306.226C215.964 306.048 213.272 305.331 211.313 303.704C208.492 301.362 207.736 297.029 207.515 293.582C207.221 288.982 206.973 270.888 207.688 267.086C208.067 265.068 208.937 263.226 210.343 261.719C211.375 260.614 213.144 259.173 214.642 258.844C219.278 257.825 224.989 258.443 229.722 258.464Q243.43 258.65 257.138 258.445Z"/>
	<path fill="#2BB5AE" d="M420.868 166.196C427.878 165.581 436.159 168.533 441.747 172.688C449.366 178.352 454.778 187.53 456.135 196.92Q456.248 197.727 456.321 198.538Q456.393 199.35 456.426 200.164Q456.459 200.978 456.451 201.792Q456.443 202.607 456.396 203.42Q456.348 204.233 456.26 205.043Q456.172 205.853 456.044 206.658Q455.916 207.462 455.748 208.259Q455.581 209.057 455.374 209.845Q455.168 210.633 454.922 211.409Q454.677 212.186 454.394 212.95Q454.11 213.714 453.789 214.463Q453.469 215.211 453.111 215.943Q452.754 216.676 452.361 217.389Q451.967 218.103 451.539 218.796Q451.112 219.489 450.65 220.16Q450.188 220.831 449.694 221.479C443.356 229.876 434.621 233.566 424.465 235.033C415.592 235.334 408.154 233.097 401.036 227.753C393.573 222.15 388.295 213.767 387.086 204.457C385.912 195.421 388.819 186.461 394.429 179.364C401.223 170.768 410.272 167.405 420.868 166.196Z"/>
	<path fill="#F9A639" d="M257.138 258.445C255.866 256.514 253.159 254.747 251.401 253.159C245.978 248.261 240.934 242.726 237.584 236.171C232.672 226.563 230.043 214.557 233.604 204.071Q233.857 203.328 234.147 202.599Q234.436 201.87 234.763 201.157Q235.089 200.443 235.451 199.747Q235.813 199.051 236.21 198.374Q236.606 197.697 237.037 197.041Q237.467 196.385 237.93 195.751Q238.393 195.118 238.887 194.509Q239.382 193.899 239.906 193.316Q240.431 192.732 240.984 192.176Q241.537 191.62 242.118 191.092Q242.699 190.565 243.305 190.067Q243.912 189.569 244.543 189.103Q245.174 188.637 245.828 188.203Q246.481 187.769 247.156 187.369Q247.831 186.968 248.525 186.603Q249.219 186.237 249.931 185.907C257.78 182.273 267.524 181.536 275.661 184.652C291.841 190.848 301.347 211.25 306.343 226.591C307.545 230.28 307.769 234.921 309.363 238.34C309.484 238.6 309.614 238.857 309.739 239.115C310.782 245.732 312.958 251.968 314.325 258.484C295.388 258.737 276.437 258.395 257.497 258.586L257.138 258.445Z"/>
	<path fill="#0D3961" d="M349.633 258.453C356.407 258.489 379.931 257.117 384.574 259.564C384.673 262.693 385.32 265.816 385.372 269.025C385.478 275.496 387.035 294.794 382.712 298.914C381.06 300.489 378.939 301.143 376.728 301.425C364.985 302.925 349.717 301.959 337.612 301.976Q297.518 302.194 257.428 301.552Q257.324 288.656 257.645 275.764C257.748 270.539 258.643 263.673 257.497 258.586C276.437 258.395 295.388 258.737 314.325 258.484Q331.979 258.345 349.633 258.453Z"/>
	<path fill="#2BB5AE" d="M672.161 155.731C705.816 138.437 747.908 135.884 783.898 147.363Q785.972 148.026 788.03 148.74Q790.087 149.454 792.126 150.219Q794.165 150.984 796.184 151.799Q798.204 152.614 800.202 153.479Q802.201 154.343 804.178 155.257Q806.154 156.171 808.108 157.134Q810.061 158.096 811.99 159.107Q813.919 160.117 815.823 161.175Q817.726 162.233 819.603 163.338Q821.48 164.443 823.328 165.594Q825.177 166.745 826.997 167.941Q828.816 169.137 830.606 170.378Q832.396 171.619 834.154 172.904Q835.912 174.189 837.638 175.517Q839.364 176.845 841.057 178.215Q842.75 179.585 844.408 180.997Q846.066 182.408 847.688 183.861Q849.311 185.313 850.898 186.805Q852.484 188.297 854.033 189.828Q855.582 191.359 857.092 192.927Q858.603 194.496 860.074 196.101Q861.545 197.707 862.977 199.348Q864.408 200.99 865.798 202.666Q867.188 204.343 868.536 206.053Q869.884 207.763 871.189 209.506Q872.495 211.249 873.757 213.024Q875.019 214.799 876.236 216.604Q877.454 218.41 878.626 220.245Q879.799 222.08 880.926 223.944Q882.052 225.807 883.133 227.698Q884.213 229.589 885.246 231.506Q886.279 233.423 887.265 235.365Q888.252 237.257 889.191 239.173Q890.131 241.089 891.023 243.027Q891.916 244.965 892.76 246.925Q893.604 248.885 894.4 250.865Q895.196 252.845 895.943 254.844Q896.69 256.842 897.388 258.859Q898.085 260.876 898.733 262.909Q899.38 264.942 899.978 266.991Q900.575 269.039 901.122 271.102Q901.669 273.164 902.165 275.24Q902.661 277.315 903.106 279.402Q903.551 281.489 903.944 283.587Q904.337 285.684 904.679 287.79Q905.02 289.897 905.31 292.011Q905.6 294.125 905.837 296.246Q906.075 298.366 906.26 300.492Q906.445 302.618 906.578 304.747Q906.711 306.877 906.791 309.01Q906.872 311.142 906.9 313.276Q906.928 315.409 906.903 317.543Q906.879 319.677 906.802 321.809Q906.725 323.942 906.595 326.072Q906.466 328.202 906.284 330.328Q906.102 332.454 905.868 334.575Q905.634 336.696 905.348 338.81Q905.062 340.925 904.724 343.032Q904.385 345.139 903.996 347.237Q903.606 349.335 903.164 351.423Q902.723 353.51 902.23 355.587Q901.738 357.663 901.194 359.726Q900.651 361.79 900.057 363.839Q899.462 365.889 898.818 367.923C895.854 377.038 892.226 385.802 887.455 394.136C882.911 402.073 877.716 409.502 873.92 417.861C867.332 432.366 863.418 447.52 860.802 463.185C859.817 469.081 859.282 475.197 858.039 481.026C856.357 471.766 857.42 454.343 857.423 444.232L857.501 363.902C857.482 351.745 854.057 341.683 845.238 333.007C832.398 320.376 818.225 321.187 801.473 321.337L774.644 321.479C774.53 308.554 774.413 295.618 774.499 282.693C774.556 274.197 775.025 265.594 774.615 257.11C781.809 251.649 798.656 245.762 803.214 238.828C804.293 237.187 804.753 235.235 804.305 233.299C803.75 230.899 801.987 229.56 800.093 228.2C791.23 221.84 776.711 214.869 766.72 209.163L698.559 170.484C689.784 165.521 680.813 160.91 672.161 155.731Z"/>
	<path fill="#2BB5AE" d="M857.999 509.603C860.36 531.016 869.222 572.614 886.282 586.275C891.004 590.057 896.061 593.309 900.567 597.378C932.949 626.616 952.163 665.196 957.25 708.378C962.279 751.057 952.125 797.207 925.198 831.26Q923.934 832.88 922.631 834.468Q921.328 836.057 919.987 837.612Q918.645 839.168 917.266 840.691Q915.886 842.213 914.47 843.701Q913.053 845.189 911.6 846.641Q910.148 848.094 908.66 849.511Q907.172 850.927 905.649 852.307Q904.127 853.686 902.571 855.028Q901.015 856.369 899.427 857.672Q897.838 858.975 896.218 860.238Q894.598 861.502 892.948 862.725Q891.297 863.948 889.617 865.13Q887.937 866.312 886.228 867.453Q884.519 868.594 882.783 869.692Q881.047 870.79 879.284 871.845Q877.521 872.9 875.733 873.912Q873.945 874.923 872.132 875.89Q870.32 876.857 868.484 877.779Q866.648 878.702 864.79 879.578Q862.932 880.455 861.053 881.286Q859.174 882.117 857.276 882.901Q855.377 883.686 853.459 884.423Q851.542 885.16 849.607 885.85Q847.672 886.541 845.72 887.183Q843.769 887.825 841.802 888.419Q839.836 889.013 837.855 889.558Q835.874 890.104 833.881 890.6Q831.887 891.097 829.882 891.544Q827.877 891.992 825.861 892.39Q823.846 892.788 821.821 893.136Q819.797 893.484 817.764 893.782Q815.731 894.081 813.692 894.329C795.7 896.346 777.534 895.915 759.462 895.924Q725.194 896.074 690.929 895.652C669.138 895.37 647.366 895.856 625.578 895.844L537.881 895.492L307.283 895.922L245.837 895.955C231.503 895.968 216.719 896.766 202.524 894.571C176.489 890.544 142.808 873.629 122.29 857.252C99.9008 839.382 89.1723 820.709 78.6015 794.799C71.4583 777.29 66.5172 759.778 64.5012 740.948C59.8277 697.298 71.7237 657.186 99.3756 623.125C111.309 608.425 127.161 595.58 143.825 586.554C150.939 582.7 158.479 579.56 165.53 575.622C165.523 571.408 165.32 567.096 165.614 562.895C166.438 578.362 165.898 594.094 165.885 609.595L165.994 685.233L166.029 711.525C166.042 717.402 165.631 723.702 166.766 729.482C168.17 736.627 172.829 743.823 178.166 748.671C182.8 752.88 189.345 756.786 195.539 757.949C207.198 760.137 230.969 758.834 243.507 758.805L309.079 758.76C325.66 758.709 342.479 758.375 359.044 759.062C364.26 756.685 369.378 752.799 374.087 749.53Q376.491 753.628 378.952 757.692L379.923 758.83C399.767 757.444 419.986 758.895 439.895 758.459C439.926 782.801 439.357 807.296 440.039 831.621C440.011 834.658 440.175 837.83 439.928 840.848L439.228 840.827C430.763 840.581 394.66 839.551 388.781 841.096C386.311 841.745 383.961 843.321 382.167 845.11C376.762 850.5 377.968 859.978 378.05 866.994L644.364 866.92Q645.461 868.364 646.711 869.678C649.98 873.121 652.275 874.559 657.076 874.669C666.219 874.879 675.417 874.604 684.567 874.643L741.933 874.909L767.479 874.891C772.235 874.88 777.484 875.237 782.182 874.467C785.78 873.878 789.431 871.572 791.985 869.041C794.951 866.101 796.096 863.361 796.846 859.25C798.598 849.647 797.572 836.812 797.597 826.896L797.504 758.004C812.474 758.079 828.911 760.221 841.712 750.836C848.833 745.615 854.633 737.418 856.626 728.753C858.784 719.374 857.49 694.612 857.472 683.931L857.499 560.691L857.447 528.679C857.432 522.669 856.894 515.979 857.911 510.069C857.938 509.913 857.97 509.758 857.999 509.603Z"/>
	<path fill="#1EA5A7" d="M136.443 730.981C136.557 732.479 136.574 733.45 135.598 734.74C134.855 735.723 133.625 736.275 132.41 736.354C130.851 736.454 128.771 736.046 127.615 734.925C126.82 734.154 126.764 733.844 126.602 732.808L127.458 731.859C128.464 732.567 129.53 733.306 130.785 733.438C133.035 733.675 134.733 732.204 136.443 730.981Z"/>
	<path fill="#1EA5A7" d="M145.054 696.813L145.399 697.486C145.319 698.919 145.436 699.057 144.484 700.099C143.203 700.564 142.005 701.022 140.613 700.773C138.266 700.352 135.852 699.55 134.504 697.45C134.066 696.768 134.275 696.619 134.43 695.894L135.938 695.056C137.301 696.642 138.45 698.071 140.718 698.156C142.248 698.214 143.759 697.56 145.054 696.813Z"/>
	<path fill="#1EA5A7" d="M131.18 756.424C132.701 759.966 134.623 766.43 138.26 768.14C139.566 768.754 140.81 768.648 142.205 768.59C141.252 769.728 140.676 769.981 139.235 770.259C138.405 770.419 138.792 770.182 138.214 770.844L138.587 771.301C140.027 771.063 141.458 770.801 142.915 770.699C142.127 771.516 140.959 771.567 139.834 771.63C137.974 771.735 136.333 770.778 135.11 769.455C132.072 766.17 130.875 760.778 131.18 756.424Z"/>
	<path fill="#1EA5A7" d="M187.306 801.292C193.363 804.184 200.647 804.276 207.212 803.283C207.461 803.437 207.596 803.725 207.769 803.961C206.411 805.438 204.77 805.771 202.861 806.058C198.312 806.74 191.123 807.151 187.356 804.291C186.649 802.905 186.879 802.817 187.306 801.292Z"/>
	<path fill="#1EA5A7" d="M173.987 795.637C174.469 796.024 174.744 796.483 175.098 796.985C175.007 797.293 174.968 797.623 174.824 797.911C174.401 798.753 173.5 799.363 172.671 799.726C170.783 800.551 168.155 799.861 166.337 799.188C162.389 797.727 154.201 792.862 152.687 788.832C152.4 788.069 152.767 787.736 153.068 787.043C157.043 790.05 166.515 798.457 171.622 797.187C172.531 796.961 173.297 796.222 173.987 795.637Z"/>
	<path fill="#D0E9F4" d="M234.251 837.033C236.931 840.305 239.69 843.538 242.13 846.994C237.751 849.364 232.936 851.851 229.138 855.084C230.497 849.507 231.541 842.022 234.251 837.033Z"/>
	<path fill="#EB5441" d="M224.827 868.272C227.368 870.084 229.7 871.951 231.851 874.223L232.416 874.411L235.698 881.051C231.6 882.072 227.08 881.962 222.874 882.067C221.464 882.055 220.913 882.175 219.684 881.433C219.041 880.077 219.231 879.012 219.38 877.577C221.14 874.443 223.087 871.425 224.827 868.272Z"/>
	<path fill="#D0E9F4" d="M232.416 874.411C239.051 869.678 246.019 864.611 252.102 859.198C257.884 866.466 263.835 873.74 268.842 881.576C262.76 883.983 244.105 879.137 235.698 881.051L232.416 874.411Z"/>
	<path fill="#06D8F3" d="M246.77 828.741C248.423 830.632 250.153 833.042 252.022 834.681Q257.811 842.243 263.829 849.623C269.158 856.636 277.809 865.361 281.306 873.087C277.071 875.808 272.81 878.471 268.842 881.576C263.835 873.74 257.884 866.466 252.102 859.198C248.9 855.028 245.508 851.021 242.13 846.994C239.69 843.538 236.931 840.305 234.251 837.033C238.574 834.364 242.754 831.887 246.77 828.741Z"/>
	<path fill="#D0E9F4" d="M359.044 759.062C364.26 756.685 369.378 752.799 374.087 749.53Q376.491 753.628 378.952 757.692C376.822 758.03 375.184 758.752 373.325 759.808C366.97 763.416 360.926 767.565 354.658 771.319C332.884 784.361 311.368 797.732 289.805 811.115C281.181 816.468 272.397 821.557 263.765 826.899C259.886 829.3 255.499 831.725 252.022 834.681C250.153 833.042 248.423 830.632 246.77 828.741C257.417 820.292 270.133 813.81 281.663 806.605Q320.045 782.33 359.044 759.062Z"/>
	<path fill="#D0E9F4" d="M388.903 772.969C394.328 780.929 399.201 789.394 403.776 797.868Q341.861 834.37 281.306 873.087C277.809 865.361 269.158 856.636 263.829 849.623C271.607 845.176 279.177 840.197 286.824 835.517L338.371 804.093C350.206 796.967 362.172 790.048 373.94 782.814C378.791 779.832 384.768 776.822 388.903 772.969Z"/>
	<path fill="#04091A" d="M520.687 238.059C520.417 237.433 520.029 236.665 519.884 235.986C519.558 234.454 519.772 232.881 520.577 231.532C521.578 229.857 523.606 228.788 525.241 227.809C548.73 213.747 573.068 201.027 596.806 187.377L636.092 164.852C643.004 160.852 651.8 153.964 659.454 151.925C664.551 150.567 667.967 153.232 672.161 155.731C680.813 160.91 689.784 165.521 698.559 170.484L766.72 209.163C776.711 214.869 791.23 221.84 800.093 228.2C801.987 229.56 803.75 230.899 804.305 233.299C804.753 235.235 804.293 237.187 803.214 238.828C798.656 245.762 781.809 251.649 774.615 257.11C775.025 265.594 774.556 274.197 774.499 282.693C774.413 295.618 774.53 308.554 774.644 321.479L801.473 321.337C818.225 321.187 832.398 320.376 845.238 333.007C854.057 341.683 857.482 351.745 857.501 363.902L857.423 444.232C857.42 454.343 856.357 471.766 858.039 481.026Q857.668 495.314 857.999 509.603C857.97 509.758 857.938 509.913 857.911 510.069C856.894 515.979 857.432 522.669 857.447 528.679L857.499 560.691L857.472 683.931C857.49 694.612 858.784 719.374 856.626 728.753C854.633 737.418 848.833 745.615 841.712 750.836C828.911 760.221 812.474 758.079 797.504 758.004L797.597 826.896C797.572 836.812 798.598 849.647 796.846 859.25C796.096 863.361 794.951 866.101 791.985 869.041C789.431 871.572 785.78 873.878 782.182 874.467C777.484 875.237 772.235 874.88 767.479 874.891L741.933 874.909L684.567 874.643C675.417 874.604 666.219 874.879 657.076 874.669C652.275 874.559 649.98 873.121 646.711 869.678Q645.461 868.364 644.364 866.92L378.05 866.994C377.968 859.978 376.762 850.5 382.167 845.11C383.961 843.321 386.311 841.745 388.781 841.096C394.66 839.551 430.763 840.581 439.228 840.827L439.928 840.848C440.175 837.83 440.011 834.658 440.039 831.621C439.357 807.296 439.926 782.801 439.895 758.459C419.986 758.895 399.767 757.444 379.923 758.83L378.952 757.692Q376.491 753.628 374.087 749.53C369.378 752.799 364.26 756.685 359.044 759.062C342.479 758.375 325.66 758.709 309.079 758.76L243.507 758.805C230.969 758.834 207.198 760.137 195.539 757.949C189.345 756.786 182.8 752.88 178.166 748.671C172.829 743.823 168.17 736.627 166.766 729.482C165.631 723.702 166.042 717.402 166.029 711.525L165.994 685.233L165.885 609.595C165.898 594.094 166.438 578.362 165.614 562.895L165.571 365.153C165.579 352.448 168.188 342.345 177.468 333.196Q178.517 332.141 179.646 331.171Q180.774 330.202 181.976 329.323Q183.177 328.445 184.443 327.663Q185.709 326.882 187.032 326.202Q188.356 325.522 189.729 324.948Q191.101 324.373 192.515 323.908Q193.928 323.443 195.374 323.09Q196.819 322.738 198.288 322.499C207.317 321.005 217.471 321.966 226.616 322.012L273.715 322.055L449.835 321.985C450.86 315.333 453.492 308.234 456.132 302.072C465.515 280.174 480.088 262.455 500.546 250.116C504.916 247.481 518.223 241.202 520.687 238.059Z"/>
	<path fill="#2BB5AE" d="M739.231 276.645C745.76 273.82 751.907 270.004 758.035 266.412L758.152 312.801C758.166 315.709 758.091 318.646 758.203 321.549C751.893 321.003 745.535 321.149 739.206 321.152Q739.1 298.898 739.231 276.645Z"/>
	<path fill="#FC957B" d="M769.393 260.064C770.947 258.936 772.928 258.056 774.615 257.11C775.025 265.594 774.556 274.197 774.499 282.693C774.413 295.618 774.53 308.554 774.644 321.479C774.587 323.111 774.831 324.232 773.864 325.577C772.516 325.762 771.408 325.695 770.065 325.57C768.004 325.538 765.894 325.536 763.838 325.674C762.17 325.786 761.047 325.684 759.447 325.165C758.251 323.978 758.422 323.187 758.203 321.549C758.091 318.646 758.166 315.709 758.152 312.801L758.035 266.412L759.589 265.341C762.903 263.969 766.218 261.769 769.393 260.064Z"/>
	<path fill="#EB5441" d="M759.589 265.341C761.043 274.204 760.091 284.466 760.041 293.493C759.995 301.728 760.45 310.414 759.71 318.587L758.965 318.828L759.353 319.763C758.287 317.779 758.275 315.012 758.152 312.801L758.035 266.412L759.589 265.341Z"/>
	<path fill="#EB5441" d="M769.393 260.064C770.947 258.936 772.928 258.056 774.615 257.11C775.025 265.594 774.556 274.197 774.499 282.693C774.413 295.618 774.53 308.554 774.644 321.479C774.587 323.111 774.831 324.232 773.864 325.577C772.516 325.762 771.408 325.695 770.065 325.57C769.173 309.914 769.628 294.076 769.617 278.396C769.612 272.313 769.832 266.131 769.393 260.064Z"/>
	<path fill="#2BB5AE" d="M560.813 262.073C568.347 266.255 575.53 270.91 582.931 275.303L582.976 321.6C575.857 321.603 568.057 322.194 561.048 321.093C560.406 313.65 560.698 305.957 560.721 298.477L560.813 262.073Z"/>
	<path fill="#2BB5AE" d="M585.943 758.796Q613.76 758.672 641.576 758.855Q641.461 799.67 642.045 840.481C623.417 840.366 604.617 841.009 586.018 840.443Q585.756 803.189 585.881 765.935L585.943 758.796Z"/>
	<path fill="#0D3961" d="M599.229 284.7C610.865 290.793 622.489 297.831 633.682 304.71C640.562 308.94 647.828 314.366 655.346 317.341C658.974 318.776 662.52 319.171 666.289 318.023C673.158 315.931 680.127 310.474 686.351 306.842C698.54 299.728 711.198 292.244 724.067 286.49L723.95 325.25L723.956 341.98C720.034 344.045 715.872 345.884 711.724 347.445C686.008 357.127 654.075 358.609 627.318 351.974C617.245 349.476 607.873 345.666 598.443 341.428L599.229 284.7Z"/>
	<path fill="#2BB5AE" d="M520.687 238.059C526.318 239.727 540.289 249.886 546.094 253.632L548.779 255.183C552.788 257.464 556.886 259.656 560.813 262.073L560.721 298.477C560.698 305.957 560.406 313.65 561.048 321.093L561.167 325.08C557.872 325.396 549.668 326.742 547.012 324.602C546.391 324.101 546.407 322.289 546.296 321.491C535.806 322.737 524.282 321.789 513.688 321.767Q481.761 321.588 449.835 321.985C450.86 315.333 453.492 308.234 456.132 302.072C465.515 280.174 480.088 262.455 500.546 250.116C504.916 247.481 518.223 241.202 520.687 238.059Z"/>
	<path fill="#FC957B" d="M546.094 253.632L548.779 255.183C552.788 257.464 556.886 259.656 560.813 262.073L560.721 298.477C560.698 305.957 560.406 313.65 561.048 321.093L561.167 325.08C557.872 325.396 549.668 326.742 547.012 324.602C546.391 324.101 546.407 322.289 546.296 321.491C545.423 314.15 546.052 306.015 546.055 298.603L546.094 253.632Z"/>
	<path fill="#EB5441" d="M546.094 253.632L548.779 255.183C549.656 278.415 548.56 301.702 549.256 324.934C553.179 324.931 557.267 324.688 561.167 325.08C557.872 325.396 549.668 326.742 547.012 324.602C546.391 324.101 546.407 322.289 546.296 321.491C545.423 314.15 546.052 306.015 546.055 298.603L546.094 253.632Z"/>
	<path fill="#07162C" d="M439.895 758.459C446.496 757.416 453.817 757.95 460.505 757.964L493.957 758.048C524.144 758.123 555.323 757.173 585.396 758.159C585.378 760.649 585.169 763.295 585.461 765.764L585.881 765.935Q585.755 803.19 586.018 840.443C576.442 839.75 566.751 840.156 557.151 840.102Q524.625 839.925 492.099 840.249L461.463 840.333C454.919 840.313 446.29 839.352 439.928 840.848C440.175 837.83 440.011 834.658 440.039 831.621C439.357 807.296 439.926 782.801 439.895 758.459Z"/>
	<path d="M439.895 758.459C446.496 757.416 453.817 757.95 460.505 757.964L493.957 758.048C524.144 758.123 555.323 757.173 585.396 758.159C585.378 760.649 585.169 763.295 585.461 765.764C585.15 786.081 586.14 806.579 585.286 826.856C582.706 820.972 580.159 815.163 576.782 809.676C567.733 794.971 552.542 780.862 536.321 774.551Q534.858 773.996 533.369 773.514Q531.88 773.032 530.368 772.624Q528.857 772.216 527.328 771.884Q525.798 771.552 524.254 771.296Q522.71 771.04 521.155 770.861Q519.6 770.682 518.039 770.58Q516.477 770.478 514.912 770.454Q513.347 770.429 511.783 770.483Q510.218 770.536 508.659 770.667Q507.099 770.797 505.548 771.005Q503.996 771.213 502.457 771.498Q500.918 771.782 499.395 772.143Q497.872 772.504 496.369 772.939Q494.866 773.375 493.386 773.884Q491.906 774.394 490.453 774.976Q489 775.558 487.578 776.212C469.746 784.3 455.99 799.988 447.493 817.293C445.599 821.151 443.405 829.254 440.039 831.621C439.357 807.296 439.926 782.801 439.895 758.459Z"/>
	<path fill="#06D8F3" d="M238.464 724.494C228.409 724.518 209.557 726.851 201.88 719.816C198.659 716.864 196.87 713.252 196.732 708.888C195.979 685.166 196.588 661.227 196.571 637.486L196.695 499.826L196.679 414.214C196.622 398.989 195.835 383.371 196.621 368.18C196.791 364.911 196.931 361.243 199.345 358.801C201.34 356.784 203.992 355.706 206.732 355.149C213.752 353.724 230.311 354.687 238.363 354.67L238.441 596.187C238.423 638.929 237.799 681.76 238.464 724.494Z"/>
	<path fill="#0D3961" d="M662.521 167.046C672.746 173.907 684.233 179.382 694.969 185.439L755.502 219.979C764.545 225.225 773.817 230.226 782.646 235.821C759.492 247.364 737.217 260.661 714.689 273.364C697.864 282.852 678.957 292.357 663.263 303.438C663.018 303.548 662.787 303.695 662.528 303.767C662.454 303.788 661.423 303.871 661.298 303.85C659.986 303.623 634.878 288.261 631.464 286.315C619.894 279.721 608.599 272.714 597.039 266.129C579.33 256.043 560.903 246.098 544.267 234.324C571.238 217.976 598.837 202.843 626.386 187.518C638.449 180.807 650.197 173.242 662.521 167.046Z"/>
	<path fill="#F9A639" d="M662.64 682.225L738.636 681.939C751.756 681.915 765.317 681.199 778.392 682.036C780.244 682.154 783.432 682.178 784.725 683.543C786.06 684.953 786.551 686.612 786.718 688.503C787.501 697.365 786.943 706.774 786.918 715.686L786.71 766.95Q786.524 795.674 786.627 824.397C786.651 835.799 787.026 847.325 786.461 858.713C785.946 859.555 785.428 860.413 784.827 861.198C782.951 863.647 781.085 864.123 778.125 864.411L700.567 864.11C687.861 864.076 674.99 864.587 662.311 864.037C660.392 863.954 657.085 864.002 655.534 862.888C654.251 861.966 652.999 859.708 652.765 858.194C651.929 852.793 652.454 846.764 652.448 841.275L652.424 807.846L652.489 686.839Q652.884 686.374 653.293 685.92C656.176 682.74 658.568 682.415 662.64 682.225Z"/>
	<path fill="#F9A639" d="M716.706 713.968C718.473 714.058 720.393 714.043 721.646 715.484C723.665 717.804 723.513 722.471 723.259 725.323C722.893 729.434 722.399 731.967 719.116 734.677C718.957 734.66 718.796 734.652 718.637 734.627C717.034 734.378 715.785 733.783 714.832 732.444C712.434 729.072 713.002 722.649 713.714 718.835C714.155 716.469 714.713 715.353 716.706 713.968Z"/>
	<path fill="#D0E9F4" d="M751.752 354.424C752.174 348.871 752.519 344.049 756.377 339.61Q756.862 339.047 757.4 338.534Q757.938 338.022 758.524 337.565Q759.11 337.108 759.738 336.711Q760.366 336.315 761.031 335.982Q761.695 335.65 762.39 335.385Q763.084 335.12 763.801 334.925Q764.518 334.729 765.251 334.606Q765.984 334.483 766.725 334.433Q767.43 334.387 768.135 334.416Q768.841 334.445 769.54 334.548Q770.238 334.652 770.922 334.828Q771.606 335.005 772.267 335.253Q772.929 335.501 773.56 335.818Q774.191 336.135 774.786 336.516Q775.38 336.898 775.931 337.34Q776.481 337.783 776.982 338.281C781.462 342.669 782.04 348.108 782.119 354.024L826.38 354.031L826.559 724.484C816.969 724.447 807.301 724.674 797.722 724.31C797.716 714.869 798.808 691.586 797.043 683.695C796.42 680.909 795.246 678.269 793.211 676.228C785.221 668.213 763.289 670.742 752.523 670.827C752.255 665.189 752.466 659.57 747.985 655.417C746.119 653.687 744.124 653.246 741.673 652.861C734.885 651.797 707.679 652.128 699.957 652.668C697.004 652.874 692.015 653.509 689.917 655.871C686.286 659.959 686.609 665.94 686.578 671.054C678.531 671.042 660.113 669.877 653.488 671.705Q652.546 671.972 651.648 672.361Q650.749 672.75 649.91 673.254Q649.071 673.758 648.306 674.368Q647.541 674.979 646.863 675.685C644.424 678.209 642.961 681.362 642.237 684.77C640.533 692.788 642.065 714.915 641.997 724.508L369.785 724.616L238.464 724.494C237.799 681.76 238.423 638.929 238.441 596.187L238.363 354.67L536.329 354.917C536.282 349.282 536.373 344.683 540.419 340.237Q540.721 339.907 541.039 339.593Q541.356 339.278 541.69 338.98Q542.023 338.683 542.371 338.402Q542.719 338.122 543.081 337.859Q543.443 337.596 543.818 337.352Q544.192 337.108 544.579 336.884Q544.965 336.659 545.363 336.454Q545.76 336.249 546.168 336.065Q546.575 335.881 546.991 335.717Q547.407 335.553 547.831 335.411Q548.255 335.269 548.685 335.148Q549.115 335.027 549.552 334.928Q549.988 334.83 550.428 334.753Q550.868 334.677 551.312 334.622Q551.756 334.568 552.202 334.537Q552.648 334.505 553.095 334.496C557.947 334.412 562.911 336.308 566.381 339.716C570.792 344.049 571.14 348.663 571.097 354.461C577.15 354.47 583.438 354.826 589.441 353.99C598.05 358.032 606.606 361.857 615.761 364.54C646.682 373.599 684.327 373.68 714.768 362.723C720.938 360.502 727.338 358.111 732.838 354.502Q742.295 354.404 751.752 354.424Z"/>
	<path fill="#EB5441" d="M626.785 502.94L627.775 506.081C625.343 507.424 611.866 506.713 608.569 506.25C607.794 505.746 607.463 505.324 606.978 504.54C613.312 502.851 620.156 504.922 626.785 502.94Z"/>
	<path fill="#EB5441" d="M671.448 503.193C677.934 503.771 688.851 503.192 694.127 504.174L693.08 505.756C692.454 506.1 691.963 506.249 691.248 506.327C688.328 506.645 672.274 507.228 670.672 506.001L671.448 503.193Z"/>
	<path fill="#F9A639" d="M751.752 354.424C752.174 348.871 752.519 344.049 756.377 339.61Q756.862 339.047 757.4 338.534Q757.938 338.022 758.524 337.565Q759.11 337.108 759.738 336.711Q760.366 336.315 761.031 335.982Q761.695 335.65 762.39 335.385Q763.084 335.12 763.801 334.925Q764.518 334.729 765.251 334.606Q765.984 334.483 766.725 334.433Q767.43 334.387 768.135 334.416Q768.841 334.445 769.54 334.548Q770.238 334.652 770.922 334.828Q771.606 335.005 772.267 335.253Q772.929 335.501 773.56 335.818Q774.191 336.135 774.786 336.516Q775.38 336.898 775.931 337.34Q776.481 337.783 776.982 338.281C781.462 342.669 782.04 348.108 782.119 354.024L782.406 387.047C777.157 383.26 772.048 379.34 767.374 374.846C762.398 379.142 757.286 384.211 751.471 387.338C751.511 376.387 751.28 365.363 751.752 354.424Z"/>
	<path fill="#F9A639" d="M536.329 354.917C536.282 349.282 536.373 344.683 540.419 340.237Q540.721 339.907 541.039 339.593Q541.356 339.278 541.69 338.98Q542.023 338.683 542.371 338.402Q542.719 338.122 543.081 337.859Q543.443 337.596 543.818 337.352Q544.192 337.108 544.579 336.884Q544.965 336.659 545.363 336.454Q545.76 336.249 546.168 336.065Q546.575 335.881 546.991 335.717Q547.407 335.553 547.831 335.411Q548.255 335.269 548.685 335.148Q549.115 335.027 549.552 334.928Q549.988 334.83 550.428 334.753Q550.868 334.677 551.312 334.622Q551.756 334.568 552.202 334.537Q552.648 334.505 553.095 334.496C557.947 334.412 562.911 336.308 566.381 339.716C570.792 344.049 571.14 348.663 571.097 354.461L571.084 387.524C565.102 382.754 559.214 377.332 552.907 373.039Q544.787 380.56 536.242 387.595C536.155 376.741 536.77 365.744 536.329 354.917Z"/>
	<path fill="#E1494B" d="M638.028 425.64Q648.565 425.769 659.103 425.672C658.983 452.72 659.541 479.77 659.617 506.821Q648.749 506.729 637.881 506.857L638.028 425.64Z"/>
	<path fill="#07162C" d="M514.752 425.534L536.71 425.555C537.283 452.634 536.672 479.844 536.565 506.935L514.882 506.957Q514.549 466.244 514.752 425.534Z"/>
	<path fill="#07162C" d="M516.345 639.652C528.06 639.162 539.953 639.552 551.685 639.533L624.46 639.486L658.114 639.38C663.837 639.349 670.61 638.66 676.207 639.632C678.056 639.953 679.504 641.331 680.453 642.886C681.39 644.421 681.917 646.18 681.298 647.956C680.418 650.481 678.3 651.586 675.971 652.519L563.345 652.523L533.365 652.539C527.609 652.544 521.118 653.139 515.482 651.949C513.486 651.527 512.117 650.516 511.03 648.775C510.171 647.399 510.06 646.009 510.554 644.482C511.4 641.863 513.997 640.595 516.345 639.652Z"/>
	<path fill="#07162C" d="M445.058 425.991C464.118 425.749 483.205 426.023 502.269 425.96L502.414 443.896L465.039 443.926L465.062 459.143C474.982 459.615 485.057 459.279 494.996 459.312L495.089 470.125L495.136 476.486L464.936 476.329L464.756 505.843C458.058 505.944 451.343 505.836 444.643 505.827L445.058 425.991Z"/>
	<path fill="#07162C" d="M514.915 602.102C521.314 601.654 527.885 601.897 534.301 601.882L569.881 601.89L676.704 601.996L728.226 601.969C733.638 601.95 746.855 600.814 751.258 602.136C753.067 602.68 754.591 603.855 755.511 605.515Q755.654 605.769 755.771 606.037Q755.888 606.304 755.978 606.581Q756.067 606.859 756.129 607.144Q756.19 607.43 756.223 607.719Q756.256 608.009 756.259 608.301Q756.263 608.593 756.237 608.883Q756.212 609.174 756.157 609.461Q756.103 609.747 756.02 610.027C755.362 612.276 754.061 613.346 752.071 614.422C742.379 616.01 728.639 615.005 718.583 614.962L655.313 614.768L562.603 614.672L533.229 614.684C528.172 614.686 522.835 615.037 517.813 614.548C515.647 614.337 512.966 613.741 511.633 611.815C510.745 610.53 510.534 609.176 510.829 607.649C511.34 605.005 512.809 603.621 514.915 602.102Z"/>
	<path fill="#07162C" d="M514.987 563.082C522.427 562.412 530.418 563.021 537.905 563.051L582.296 563.13C636.415 563.124 690.629 563.773 744.733 562.85C748.407 562.787 752.786 562.991 755.512 565.838C756.557 566.929 757.053 568.29 756.814 569.797C756.4 572.407 754.328 574.365 752.394 575.958C743.782 577.126 732.547 576.164 723.625 576.126L664.133 575.977L563.24 575.933L533.635 575.93C528.288 575.938 522.643 576.31 517.338 575.766C515.215 575.549 512.785 575.151 511.512 573.216C510.436 571.582 510.576 569.576 511.044 567.77C511.696 565.253 512.814 564.395 514.987 563.082Z"/>
	<path fill="#E1494B" d="M577.051 425.953L596.687 425.987C600.529 434.157 603.332 443.06 606.62 451.49L626.785 502.94C620.156 504.922 613.312 502.851 606.978 504.54C606.471 500.741 604.009 496.132 602.619 492.493Q587.631 492.407 572.643 492.51C570.723 497.305 568.899 502.167 566.63 506.81Q556.426 506.673 546.221 506.768C550.652 497.494 553.959 487.558 557.62 477.952Q567.628 452.062 577.051 425.953Z"/>
	<path fill="#D0E9F4" d="M587.127 447.353C588.34 449.042 594.866 472.407 597.083 478.029L587.407 478.099L577.53 478.091C580.78 467.918 584.658 457.74 587.127 447.353Z"/>
	<path fill="#E1494B" d="M700.928 425.88Q713.223 425.943 725.518 425.792C733.027 444.413 739.988 463.17 746.939 482C749.955 490.172 753.264 498.248 756.071 506.495C748.866 506.452 741.638 506.535 734.437 506.356Q730.94 497.951 727.739 489.43C718.34 489.326 708.889 489 699.493 489.162C697.747 493.059 694.137 499.877 694.127 504.174C688.851 503.192 677.934 503.771 671.448 503.193C675.907 493.196 679.373 482.819 683.131 472.549Q689.021 456.779 695.116 441.087C697.052 436.053 698.742 430.802 700.928 425.88Z"/>
	<path fill="#07162C" d="M382.029 425.707L406.789 425.909C410.17 433.84 412.479 442.371 415.524 450.458C422.437 468.817 429.955 487.105 435.54 505.921L413.796 505.88C412.37 502.882 411.497 499.648 410.302 496.554C409.699 494.992 409.671 494.019 408.125 493.343L381.804 493.433L377.549 505.312C369.412 505.511 361.256 505.439 353.116 505.465C358.951 490.99 363.972 476.395 369.244 461.719C373.548 449.738 378.151 437.835 382.029 425.707Z"/>
	<path fill="#D0E9F4" d="M395.089 449.326C397.232 451.562 403.064 472.651 404.448 477.078L396.75 477.059L387.064 477.034Q390.942 463.141 395.089 449.326Z"/>
	<path fill="#07162C" d="M273.979 425.997L295.027 426.054L295.017 455.048L323.046 455.233L323.007 426.178C330.032 425.956 337.101 426.127 344.131 426.142C344.226 435.978 345.058 502.394 344.094 505.076L343.063 505.395L323.08 505.275L323.248 474.582L295.321 474.577Q295.192 489.823 295.266 505.069L273.596 505.182L273.979 425.997Z"/>
	<path fill="#07162C" d="M272.554 535.456L477.254 535.513C476.825 552.984 477.097 570.492 477.136 587.968L477.301 681.747C468.869 682.224 460.295 681.943 451.852 681.939L407.39 681.907L272.596 681.862C273.183 633.079 272.443 584.247 272.554 535.456Z"/>
	<path fill="#E1494B" d="M288.53 550.193L461.079 550.162C460.954 588.969 461.564 627.84 460.906 666.635L288.23 666.461L288.314 588.406C288.337 575.685 288.116 562.904 288.53 550.193Z"/>
</svg>
