<?xml version="1.0" encoding="utf-8" ?>
<svg xmlns="http://www.w3.org/2000/svg" xmlns:xlink="http://www.w3.org/1999/xlink" width="1364" height="1023">
	<path fill="#91D1F0" transform="scale(0.999267 0.999267)" d="M843.074 100.866C848.924 100.281 856.257 102.336 861.221 105.423C867.831 109.534 872.236 116.413 873.946 123.943C875.698 131.664 874.571 139.886 870.308 146.614C865.427 154.316 858.095 158.002 849.46 160.027C842.162 160.223 835.972 159.52 829.714 155.419Q829.081 154.998 828.471 154.545Q827.86 154.093 827.272 153.61Q826.685 153.128 826.122 152.617Q825.559 152.106 825.023 151.568Q824.486 151.029 823.977 150.465Q823.468 149.9 822.987 149.311Q822.507 148.722 822.057 148.109Q821.606 147.497 821.187 146.863Q820.768 146.229 820.38 145.575Q819.993 144.92 819.639 144.248Q819.285 143.575 818.965 142.885Q818.645 142.196 818.359 141.491Q818.074 140.787 817.824 140.069Q817.574 139.351 817.36 138.621Q817.146 137.892 816.969 137.152Q816.791 136.413 816.651 135.666C815.165 127.923 816.763 119.56 821.296 113.071C826.638 105.425 834.169 102.356 843.074 100.866Z"/>
	<path fill="#91D1F0" transform="scale(0.999267 0.999267)" d="M1177.99 256.332C1188.37 255.243 1197.69 256.312 1206.48 262.366C1214.9 268.169 1221.06 277.212 1222.9 287.319Q1223.07 288.255 1223.19 289.199Q1223.31 290.143 1223.39 291.091Q1223.46 292.04 1223.49 292.991Q1223.52 293.942 1223.5 294.893Q1223.49 295.844 1223.42 296.794Q1223.36 297.743 1223.25 298.688Q1223.14 299.633 1222.98 300.572Q1222.83 301.51 1222.62 302.44Q1222.42 303.37 1222.18 304.289Q1221.93 305.207 1221.64 306.113Q1221.34 307.018 1221.01 307.909Q1220.67 308.799 1220.29 309.671Q1219.91 310.544 1219.49 311.397Q1219.07 312.25 1218.61 313.082Q1218.15 313.913 1217.64 314.721Q1217.14 315.529 1216.6 316.311C1210.61 324.828 1201.93 329.374 1191.85 331.15C1184.46 332.543 1176.48 331.211 1169.77 327.89Q1168.93 327.469 1168.11 327.006Q1167.29 326.543 1166.49 326.041Q1165.7 325.538 1164.93 324.996Q1164.16 324.455 1163.42 323.876Q1162.68 323.297 1161.96 322.682Q1161.25 322.067 1160.57 321.417Q1159.89 320.767 1159.24 320.085Q1158.59 319.402 1157.98 318.688Q1157.37 317.974 1156.79 317.231Q1156.21 316.487 1155.67 315.716Q1155.13 314.945 1154.63 314.148Q1154.13 313.351 1153.67 312.53Q1153.21 311.71 1152.79 310.867Q1152.37 310.024 1151.99 309.162Q1151.62 308.3 1151.28 307.42Q1150.95 306.539 1150.66 305.644Q1150.35 304.732 1150.09 303.806Q1149.82 302.88 1149.61 301.942Q1149.39 301.004 1149.22 300.056Q1149.05 299.108 1148.93 298.153Q1148.81 297.197 1148.74 296.237Q1148.67 295.277 1148.64 294.315Q1148.62 293.352 1148.65 292.39Q1148.67 291.427 1148.75 290.467Q1148.82 289.507 1148.94 288.552Q1149.06 287.597 1149.23 286.649Q1149.41 285.702 1149.62 284.764Q1149.84 283.826 1150.11 282.901Q1150.37 281.975 1150.68 281.064Q1151 280.153 1151.35 279.259Q1151.71 278.365 1152.11 277.49Q1152.51 276.615 1152.96 275.762C1158.45 265.109 1166.93 259.932 1177.99 256.332Z"/>
	<path fill="#122D6C" transform="scale(0.999267 0.999267)" d="M344.564 907.876C356.831 908.4 369.254 908.028 381.535 908.019L451.784 907.883L668.112 907.876L982.77 907.708L1057.13 907.967C1066.25 908.026 1075.51 908.654 1084.6 908.457C1086.88 908.407 1090.99 908.68 1092.73 907.286C1092.9 907.331 1093.06 907.381 1093.23 907.421C1102.66 909.734 1124.61 903.05 1130.8 912.445C1132.14 914.485 1132.6 917.412 1131.97 919.77C1131.3 922.219 1129.43 923.972 1127.22 925.09C1123.58 926.939 1119.29 927.23 1115.28 927.413C1103.67 927.941 1091.95 927.051 1080.34 926.94C1063.09 926.774 1045.84 927.036 1028.59 926.824C990.464 926.355 952.294 926.765 914.165 926.765L464.527 926.793Q403.913 927.532 343.295 927.099C325.051 927.119 301.592 929.703 284.162 925.745C281.577 923.496 279.127 920.944 278.749 917.324C278.598 915.876 279.067 914.623 280.005 913.525C283.674 909.23 291.635 907.997 296.957 907.819C312.783 907.292 328.711 908.341 344.564 907.876Z"/>
	<path fill="#91D1F0" transform="scale(0.999267 0.999267)" d="M169.027 756.922C111.879 669.122 88.1139 576.094 97.7325 471.592Q98.2239 466.597 98.8353 461.616Q99.4468 456.634 100.178 451.669Q100.909 446.703 101.76 441.757Q102.61 436.811 103.58 431.886Q104.549 426.962 105.637 422.062Q106.725 417.163 107.93 412.291Q109.135 407.419 110.458 402.577Q111.78 397.736 113.218 392.927Q114.657 388.119 116.211 383.347Q117.764 378.575 119.433 373.841Q121.101 369.108 122.883 364.416Q124.664 359.724 126.559 355.077Q128.453 350.429 130.458 345.828Q132.464 341.228 134.58 336.677Q136.695 332.126 138.92 327.627Q141.145 323.128 143.477 318.685Q145.809 314.241 148.248 309.855Q150.687 305.468 153.23 301.142Q155.774 296.816 158.421 292.552Q161.068 288.288 163.817 284.089Q166.566 279.891 169.415 275.759Q172.264 271.628 175.212 267.566Q178.16 263.505 181.204 259.516Q184.249 255.526 187.389 251.611Q190.529 247.697 193.762 243.859Q196.995 240.02 200.32 236.261Q203.645 232.502 207.059 228.824Q210.473 225.147 213.975 221.552Q217.477 217.957 221.064 214.448Q224.652 210.939 228.323 207.517Q231.993 204.096 235.746 200.763Q239.498 197.431 243.329 194.19Q247.23 190.918 251.212 187.745Q255.194 184.571 259.253 181.498Q263.313 178.424 267.448 175.453Q271.583 172.482 275.79 169.615Q279.998 166.748 284.276 163.986Q288.553 161.225 292.899 158.571Q297.244 155.917 301.654 153.373Q306.064 150.828 310.536 148.394Q315.008 145.96 319.539 143.638Q324.071 141.316 328.658 139.108Q333.246 136.9 337.887 134.807Q342.529 132.714 347.221 130.737Q351.913 128.761 356.653 126.902Q361.392 125.043 366.177 123.302Q370.962 121.562 375.788 119.941Q380.615 118.321 385.48 116.821Q390.346 115.321 395.247 113.944Q400.148 112.566 405.083 111.31Q410.017 110.055 414.981 108.923Q419.944 107.791 424.935 106.783Q429.925 105.775 434.94 104.892Q439.954 104.009 444.988 103.251Q450.023 102.493 455.075 101.861Q460.126 101.229 465.192 100.723Q470.259 100.217 475.336 99.8377Q480.413 99.4582 485.498 99.2054Q490.583 98.9525 495.672 98.8265Q500.762 98.7005 505.853 98.7015Q510.944 98.7024 516.034 98.8302Q521.124 98.9581 526.208 99.2128Q531.293 99.4675 536.37 99.8488Q541.447 100.23 546.513 100.738C655.906 110.923 757.158 169.391 826.729 253.393Q794.328 276.117 762.879 300.141Q739.177 277.721 715.22 255.574C688.224 230.387 645.394 186.349 605.68 187.727C590.637 188.249 577.353 195.982 567.279 206.833C557.115 217.782 550.148 231.438 550.787 246.675C551.244 257.56 555.768 267.253 560.52 276.838C544.252 272.333 527.474 271.778 512.402 280.361Q511.221 281.041 510.076 281.779Q508.93 282.516 507.822 283.31Q506.715 284.103 505.647 284.95Q504.58 285.796 503.555 286.695Q502.531 287.593 501.552 288.541Q500.573 289.489 499.643 290.484Q498.712 291.479 497.831 292.519Q496.95 293.559 496.122 294.641Q495.293 295.722 494.519 296.844Q493.745 297.965 493.027 299.124Q492.31 300.282 491.65 301.474Q490.99 302.666 490.39 303.89Q489.789 305.113 489.25 306.364Q488.711 307.616 488.234 308.892Q487.757 310.169 487.343 311.467Q486.93 312.766 486.581 314.083C485.89 316.626 485.587 319.521 484.339 321.847L483.35 322.354L484.282 322.764C484.801 327.141 484.638 331.573 485.206 335.939C486.445 345.453 490.77 354.777 494.87 363.377C478.386 356.193 462.204 354.001 445.046 360.627C430.176 366.37 417.642 377.528 411.237 392.234C406.242 403.7 405.471 416.111 410.145 427.792C412.172 432.859 414.709 437.802 417.016 442.75C394.04 442.273 375.774 443.483 358.172 459.961C348.647 470.605 343.159 483.074 344.014 497.552C344.495 505.709 346.881 513.523 349.972 521.044C319.677 554.318 299.139 585.921 300.866 632.383Q272.756 651.411 245.006 670.96C234.228 678.441 221.088 685.64 212.261 695.369C204.773 703.622 198.916 713.607 192.72 722.845Q181.092 740.036 169.027 756.922ZM358.172 459.961C375.774 443.483 394.04 442.273 417.016 442.75C414.709 437.802 412.172 432.859 410.145 427.792C405.471 416.111 406.242 403.7 411.237 392.234C417.642 377.528 430.176 366.37 445.046 360.627C462.204 354.001 478.386 356.193 494.87 363.377C490.77 354.777 486.445 345.453 485.206 335.939C484.638 331.573 484.801 327.141 484.282 322.764L483.35 322.354C452.108 320.686 420.644 322.207 389.366 322.149L354.671 321.926C347.693 321.853 340.517 321.248 333.587 322.256C328.564 322.987 323.652 325.024 319.855 328.44Q319.435 328.815 319.035 329.211Q318.634 329.607 318.254 330.022Q317.874 330.438 317.516 330.872Q317.157 331.306 316.821 331.758Q316.484 332.209 316.171 332.677Q315.858 333.145 315.568 333.628Q315.279 334.111 315.014 334.608Q314.75 335.105 314.51 335.614Q314.271 336.124 314.057 336.645Q313.844 337.166 313.656 337.697Q313.469 338.228 313.309 338.768Q313.149 339.308 313.016 339.855Q312.883 340.402 312.778 340.956Q312.673 341.509 312.596 342.067Q312.518 342.624 312.469 343.185Q312.42 343.746 312.399 344.309C312.174 350.498 314.637 356.057 318.868 360.484C323.988 365.839 331.142 367.358 338.296 367.45C351.005 367.614 367.215 365.068 376.97 375.129Q377.353 375.529 377.715 375.947Q378.078 376.365 378.419 376.801Q378.761 377.236 379.081 377.688Q379.4 378.14 379.698 378.607Q379.995 379.074 380.268 379.555Q380.542 380.036 380.792 380.53Q381.042 381.024 381.267 381.53Q381.492 382.036 381.692 382.552Q381.892 383.068 382.066 383.593Q382.24 384.119 382.388 384.652Q382.536 385.185 382.658 385.725Q382.78 386.265 382.875 386.811Q382.97 387.356 383.038 387.905Q383.106 388.455 383.147 389.007Q383.188 389.559 383.202 390.112Q383.216 390.666 383.202 391.219Q383.19 391.748 383.151 392.276Q383.113 392.805 383.047 393.33Q382.982 393.855 382.89 394.377Q382.799 394.898 382.681 395.414Q382.563 395.931 382.419 396.44Q382.275 396.95 382.105 397.451Q381.936 397.953 381.741 398.445Q381.547 398.938 381.328 399.42Q381.108 399.902 380.865 400.372Q380.622 400.842 380.355 401.3Q380.088 401.757 379.799 402.2Q379.509 402.643 379.198 403.072Q378.886 403.5 378.553 403.911Q378.221 404.323 377.868 404.718Q377.514 405.112 377.142 405.488Q376.769 405.864 376.378 406.221C372.918 409.411 368.713 411.356 364.099 412.173C349.649 414.731 334.08 412.928 319.459 412.855L246.162 412.784C233.42 412.679 216.924 410.501 204.894 415.101C195.892 418.543 190.006 425.631 189.467 435.409Q189.438 435.977 189.438 436.545Q189.437 437.113 189.466 437.681Q189.494 438.248 189.551 438.814Q189.608 439.379 189.694 439.941Q189.779 440.503 189.893 441.059Q190.007 441.616 190.149 442.166Q190.291 442.717 190.461 443.259Q190.63 443.801 190.827 444.335Q191.024 444.868 191.247 445.39Q191.47 445.913 191.72 446.423Q191.97 446.934 192.245 447.431Q192.52 447.928 192.82 448.411Q193.12 448.893 193.443 449.36Q193.767 449.827 194.114 450.277Q194.461 450.727 194.831 451.159Q195.2 451.59 195.591 452.003C201.896 458.727 210.291 459.898 219.108 460.064C240.12 460.457 261.207 460.092 282.225 460.068C307.532 460.039 332.869 460.272 358.172 459.961ZM246.714 323.497C240.172 326.035 234.937 328.892 231.889 335.532C229.538 340.652 229.595 346.595 231.622 351.805Q231.807 352.276 232.016 352.738Q232.225 353.2 232.456 353.651Q232.688 354.101 232.942 354.54Q233.195 354.978 233.471 355.404Q233.746 355.829 234.042 356.24Q234.338 356.651 234.655 357.047Q234.971 357.443 235.307 357.822Q235.642 358.202 235.997 358.564Q236.351 358.926 236.723 359.27Q237.095 359.614 237.483 359.94Q237.872 360.265 238.276 360.57Q238.681 360.875 239.1 361.16Q239.519 361.445 239.952 361.708Q240.384 361.971 240.83 362.213Q241.275 362.454 241.732 362.673Q242.189 362.892 242.656 363.088C246.491 364.72 250.238 364.848 254.34 364.534C260.669 362.286 266.06 359.349 269.107 353.029C271.577 347.906 271.799 342.179 269.855 336.841Q269.681 336.358 269.484 335.884Q269.287 335.409 269.066 334.946Q268.846 334.482 268.603 334.03Q268.359 333.577 268.094 333.138Q267.829 332.698 267.542 332.272Q267.256 331.846 266.948 331.434Q266.641 331.023 266.313 330.627Q265.986 330.232 265.64 329.853Q265.293 329.474 264.928 329.112Q264.563 328.751 264.181 328.408Q263.799 328.065 263.4 327.742Q263.001 327.418 262.587 327.115Q262.173 326.812 261.744 326.529Q261.315 326.247 260.873 325.986Q260.431 325.725 259.976 325.486Q259.522 325.247 259.056 325.031C254.953 323.142 251.102 323.162 246.714 323.497Z"/>
	<path fill="#122D6C" transform="scale(0.999267 0.999267)" d="M826.729 253.393C851.573 236.543 875.726 218.592 900.046 200.997C915.438 189.861 931.331 179.232 946.359 167.617C960.246 156.884 970.834 140.643 986.606 132.721C1001.59 125.196 1019.74 122.75 1036.16 125.954C1055.45 129.717 1071.83 141.233 1082.65 157.544C1094.11 174.81 1097.65 195.009 1093.38 215.21Q1092.95 217.177 1092.4 219.114Q1091.85 221.051 1091.18 222.951Q1090.51 224.85 1089.73 226.705Q1088.95 228.56 1088.05 230.364Q1087.15 232.167 1086.15 233.912Q1085.14 235.656 1084.03 237.336Q1082.92 239.016 1081.71 240.624Q1080.5 242.232 1079.19 243.763C1067.83 257.004 1051.4 266.624 1037.14 276.521C1026.42 283.968 1015.8 291.629 1004.8 298.671C1004.03 299.164 1003.27 299.67 1002.47 300.101C1010.32 305.113 1017.13 312.491 1025.37 316.589C1035.98 321.869 1048.29 323.508 1059.65 326.654Q1068.75 329.247 1077.63 332.525Q1086.51 335.803 1095.12 339.746C1159.79 368.781 1212.73 418.249 1241.83 483.375C1246.47 493.769 1251.89 504.656 1254.43 515.784C1254.91 517.926 1255.03 519.116 1254.18 521.151C1256.39 522.767 1257.34 524.505 1257.73 527.222C1257.93 528.635 1258.03 529.937 1257.82 531.346C1262.63 535.034 1266.25 563.356 1267.12 570.013C1267.74 574.741 1269.5 583.005 1267.43 587.288C1268.79 589.277 1270.05 590.82 1270.27 593.299C1269.79 594.916 1269.43 595.539 1268.23 596.727C1272.83 601.778 1271.18 619.541 1270.86 626.196C1270.49 634.017 1270.34 662.302 1265.86 667.086L1265.65 667.323C1266.61 670.062 1267.11 671.615 1265.78 674.284C1265.61 674.629 1265.42 674.964 1265.23 675.3C1267.99 686.302 1250.25 733.524 1243.83 744.327C1243.38 745.073 1242.94 745.562 1242.3 746.141C1243.24 747.603 1243.9 748.408 1243.49 750.279C1243.03 752.385 1240.68 754.208 1238.94 755.264C1239.67 763.743 1209.58 806.259 1202.87 814.225C1200.75 816.748 1198.22 819.679 1194.98 820.682C1195.99 822.062 1196.66 823.275 1196.5 825.045C1196.34 826.753 1195.08 828.025 1193.73 828.949C1191.64 830.377 1189.32 830.955 1186.9 831.522C1186.81 837.612 1176.91 846.335 1172.54 850.585C1166.75 856.205 1149.32 873.065 1142.31 875.365C1138.52 884.965 1105.22 902.017 1095.48 906.223C1094.58 906.616 1093.67 906.962 1092.73 907.286C1090.99 908.68 1086.88 908.407 1084.6 908.457C1075.51 908.654 1066.25 908.026 1057.13 907.967L982.77 907.708L668.112 907.876L451.784 907.883L381.535 908.019C369.254 908.028 356.831 908.4 344.564 907.876C298.609 888.111 265.071 864.241 230.424 828.561C214.538 835.94 183.506 842.395 165.536 847.341C152.903 850.818 140.469 855.566 127.732 858.539C123.391 859.552 117.253 860.614 113.337 857.898C111.219 856.429 109.875 853.881 109.47 851.371C108.939 848.078 109.883 845.537 111.367 842.681C117.509 830.86 126.574 819.631 134.155 808.636Q151.776 782.904 169.027 756.922Q181.092 740.036 192.72 722.845C198.916 713.607 204.773 703.622 212.261 695.369C221.088 685.64 234.228 678.441 245.006 670.96Q272.756 651.411 300.866 632.383C299.139 585.921 319.677 554.318 349.972 521.044C346.881 513.523 344.495 505.709 344.014 497.552C343.159 483.074 348.647 470.605 358.172 459.961C375.774 443.483 394.04 442.273 417.016 442.75C414.709 437.802 412.172 432.859 410.145 427.792C405.471 416.111 406.242 403.7 411.237 392.234C417.642 377.528 430.176 366.37 445.046 360.627C462.204 354.001 478.386 356.193 494.87 363.377C490.77 354.777 486.445 345.453 485.206 335.939C484.638 331.573 484.801 327.141 484.282 322.764L483.35 322.354L484.339 321.847C485.587 319.521 485.89 316.626 486.581 314.083Q486.93 312.766 487.343 311.467Q487.757 310.169 488.234 308.892Q488.711 307.616 489.25 306.364Q489.789 305.113 490.39 303.89Q490.99 302.666 491.65 301.474Q492.31 300.282 493.027 299.124Q493.745 297.965 494.519 296.844Q495.293 295.722 496.122 294.641Q496.95 293.559 497.831 292.519Q498.712 291.479 499.643 290.484Q500.573 289.489 501.552 288.541Q502.531 287.593 503.555 286.695Q504.58 285.796 505.647 284.95Q506.715 284.103 507.822 283.31Q508.93 282.516 510.076 281.779Q511.221 281.041 512.402 280.361C527.474 271.778 544.252 272.333 560.52 276.838C555.768 267.253 551.244 257.56 550.787 246.675C550.148 231.438 557.115 217.782 567.279 206.833C577.353 195.982 590.637 188.249 605.68 187.727C645.394 186.349 688.224 230.387 715.22 255.574Q739.177 277.721 762.879 300.141Q794.328 276.117 826.729 253.393Z"/>
	<path fill="#91D1F0" transform="scale(0.999267 0.999267)" d="M358.183 542.575C364.777 549.668 371.553 569.493 375.579 578.905Q354.175 593.848 332.612 608.56Q326.853 612.56 321.165 616.661C326.092 587.272 337.434 564.125 358.183 542.575Z"/>
	<path fill="#516694" transform="scale(0.999267 0.999267)" d="M671.579 244.373C680.391 247.924 709.214 278.678 717.735 286.646C726.851 295.17 736.391 303.155 745.276 311.942L734.002 320.145L720.805 329.842C715.745 324.873 708.665 320.998 704.345 315.52C698.267 307.814 694.499 295.994 690.465 286.969C684.131 272.795 677.603 258.681 671.579 244.373Z"/>
	<path fill="#91D1F0" transform="scale(0.999267 0.999267)" d="M616.755 411.042C621.312 422.423 626.273 433.624 630.593 445.102C613.311 448.26 597.225 452.42 586.67 467.75C582.186 474.262 579.726 481.552 577.704 489.126L570.793 485.165C563.226 469.404 556.783 453.125 549.421 437.279C574.114 431.645 596.19 426.719 616.755 411.042Z"/>
	<path fill="#91D1F0" transform="scale(0.999267 0.999267)" d="M395.811 575.141C421.067 566.849 443.486 566.62 463.807 546.621C469.852 560.28 477.694 573.812 471.959 589.014C468.427 598.379 460.795 605.862 451.7 609.88Q450.857 610.258 449.997 610.593Q449.137 610.929 448.261 611.221Q447.385 611.514 446.496 611.763Q445.607 612.013 444.707 612.218Q443.807 612.423 442.897 612.584Q441.988 612.744 441.072 612.86Q440.156 612.975 439.235 613.046Q438.315 613.116 437.392 613.141Q436.469 613.166 435.546 613.145Q434.622 613.124 433.702 613.058Q432.781 612.992 431.864 612.88Q430.947 612.769 430.037 612.613Q429.127 612.456 428.226 612.255Q427.325 612.054 426.435 611.809Q425.545 611.563 424.668 611.274Q423.791 610.986 422.929 610.654C407.552 604.6 402.555 588.779 395.811 575.141Z"/>
	<path fill="#91D1F0" transform="scale(0.999267 0.999267)" d="M678.22 306.953C684.962 320.269 695.498 335.938 690.845 351.293C680.285 361.227 658.889 379.077 643.869 378.516C637.34 378.272 631.308 375.56 626.886 370.73C617.951 360.972 613.735 346.187 608.002 334.482C613.03 332.514 619.289 331.83 624.597 330.697C645.944 326.142 661.02 321.204 678.22 306.953Z"/>
	<path fill="#91D1F0" transform="scale(0.999267 0.999267)" d="M539.612 484.617C547.337 502.619 562.667 522.528 554.537 542.825C550.791 552.177 543.007 559.813 533.773 563.745Q532.904 564.112 532.018 564.435Q531.132 564.758 530.232 565.038Q529.331 565.317 528.418 565.552Q527.504 565.786 526.581 565.976Q525.657 566.165 524.725 566.309Q523.793 566.453 522.855 566.551Q521.917 566.648 520.976 566.7Q520.034 566.751 519.091 566.756Q518.148 566.761 517.206 566.72Q516.264 566.678 515.325 566.591Q514.386 566.503 513.453 566.369Q512.519 566.235 511.594 566.055Q510.668 565.876 509.752 565.651Q508.836 565.426 507.933 565.156Q507.029 564.886 506.14 564.572Q505.251 564.258 504.378 563.901C485.395 555.93 477.944 529.746 469.538 512.514C472.458 511.968 475.544 511.906 478.502 511.428C498.124 508.254 527.533 501.371 539.612 484.617Z"/>
	<path fill="#91D1F0" transform="scale(0.999267 0.999267)" d="M1145 756C1176.27 756.042 1207.69 756.411 1238.94 755.264C1239.67 763.743 1209.58 806.259 1202.87 814.225C1200.75 816.748 1198.22 819.679 1194.98 820.682C1194.83 819.808 1194.51 819.398 1194.04 818.663C1186.97 815.021 1154.49 817.21 1144.97 817.331C1145.43 816.567 1145.46 816.636 1145.68 815.902C1147.69 809.33 1147.71 761.488 1145 756Z"/>
	<path fill="#91D1F0" transform="scale(0.999267 0.999267)" d="M1257.82 531.346C1262.63 535.034 1266.25 563.356 1267.12 570.013C1267.74 574.741 1269.5 583.005 1267.43 587.288C1266.68 587.738 1156.7 587.053 1144.42 587.087C1145.08 586.244 1145.3 585.765 1145.52 584.689C1147.01 577.345 1147.61 543.323 1143.98 538.162L1214.09 538.21C1225.74 538.275 1237.78 539.316 1249.37 538.301C1251.76 538.092 1254.61 537.827 1256.31 535.927C1257.75 534.323 1257.77 533.364 1257.82 531.346Z"/>
	<path fill="#EF6E31" transform="scale(0.999267 0.999267)" d="M220.83 713.074C224.656 716.914 226.403 723.498 230.141 727.938C240.198 739.881 252.662 742.897 267.569 744.12C265.721 752.044 260.704 773.827 263.831 780.77C266.971 787.743 277.773 790.798 284.301 793.414C264.616 800.861 244.291 806.433 224.114 812.371Q207.56 817.215 191.152 822.535C186.825 807.789 180.717 798.676 168.797 788.961C185.714 763.367 203.632 738.476 220.83 713.074Z"/>
	<path fill="#91D1F0" transform="scale(0.999267 0.999267)" d="M1144.59 676.702Q1179.33 676.682 1214.06 677.026C1227.55 677.22 1241.78 678.331 1255.2 677.331C1258.44 677.09 1261.43 676.176 1264.48 675.08L1264.83 674.641L1265.23 675.3C1267.99 686.302 1250.25 733.524 1243.83 744.327C1243.38 745.073 1242.94 745.562 1242.3 746.141L1241.56 744.87C1233.67 740.502 1158.86 742.842 1144.6 743.082C1144.89 742.487 1144.97 742.358 1145.17 741.782C1147.21 736.003 1147.23 681.913 1144.59 676.702Z"/>
	<path fill="#1581D0" transform="scale(0.999267 0.999267)" d="M395.811 575.141C391.6 568.013 388.587 560.032 385.074 552.527C379.131 539.829 372.855 527.197 367.346 514.304C363.291 504.814 361.069 494.865 365.116 484.973C369.119 475.192 377.534 467.454 387.215 463.438C396.645 459.525 409.354 458.757 418.886 462.768C422.471 464.277 425.684 466.58 428.028 469.707C433.238 476.659 436.366 485.775 440.029 493.632C448.223 511.206 456.32 528.732 463.807 546.621C443.486 566.62 421.067 566.849 395.811 575.141Z"/>
	<path fill="#EF6E31" transform="scale(0.999267 0.999267)" d="M384.55 596.771C387.258 599.878 388.718 604.118 390.581 607.77C395.47 617.354 405.726 623.691 414.922 628.578L326.707 689.853C311.403 700.522 296.565 712.575 280.524 722.053C276.513 724.423 273.035 726.348 268.323 726.755C261.733 726.646 255.087 725.81 249.352 722.317C241.045 717.259 238.983 708.915 236.942 700.074C253.981 687.8 271.516 676.319 288.547 664.056C320.162 641.292 351.671 617.664 384.55 596.771Z"/>
	<path fill="#91D1F0" transform="scale(0.999267 0.999267)" d="M1268.23 596.727C1272.83 601.778 1271.18 619.541 1270.86 626.196C1270.49 634.017 1270.34 662.302 1265.86 667.086L1265.65 667.323L1264.72 666.019C1261.55 664.368 1257.3 664.471 1253.78 664.328C1242.38 663.864 1230.87 664.585 1219.45 664.655L1144.52 665.057C1144.86 664.41 1145.15 663.835 1145.33 663.121C1147 656.521 1147.33 604.564 1144.55 599.979L1221.23 600.016C1234.52 600.092 1248.72 601.546 1261.87 599.728C1264.6 599.35 1266.52 598.99 1268.23 596.727Z"/>
	<path fill="#1581D0" transform="scale(0.999267 0.999267)" d="M608.002 334.482C599.809 313.42 588.374 293.468 579.149 272.814C573.689 260.593 567.881 247.857 573.117 234.522C577.128 224.307 585.929 216.383 595.899 212.131C605.6 207.994 617.247 207.328 627.079 211.441C631.802 213.417 635.643 216.552 638.624 220.706C647.229 232.697 652.11 248.368 658.095 261.856C664.787 276.938 672.053 291.62 678.22 306.953C661.02 321.204 645.944 326.142 624.597 330.697C619.289 331.83 613.03 332.514 608.002 334.482Z"/>
	<path fill="#1581D0" transform="scale(0.999267 0.999267)" d="M469.538 512.514C469.507 512.457 469.472 512.402 469.444 512.343L443.164 454.583C438.092 443.604 430.69 431.348 427.816 419.618C426.483 414.18 426.62 408.726 428.342 403.391C431.495 393.622 438.875 385.467 447.971 380.839C458.107 375.682 471.006 374.627 481.809 378.256C487.226 380.076 492.105 383.267 495.508 387.907C501.921 396.651 505.227 408.295 509.572 418.203C519.274 440.328 528.76 463.053 539.612 484.617C527.533 501.371 498.124 508.254 478.502 511.428C475.544 511.906 472.458 511.968 469.538 512.514Z"/>
	<path fill="#1581D0" transform="scale(0.999267 0.999267)" d="M549.421 437.279C545.94 428.56 541.378 420.119 537.349 411.625L518.582 371.117C513.538 360.236 507.632 349.088 505.079 337.307C503.658 330.75 503.613 324.197 505.814 317.803C508.877 308.902 515.901 301.366 524.349 297.299Q525.231 296.876 526.132 296.497Q527.033 296.118 527.952 295.784Q528.871 295.449 529.805 295.161Q530.739 294.872 531.686 294.629Q532.633 294.387 533.591 294.191Q534.548 293.995 535.515 293.846Q536.481 293.698 537.454 293.597Q538.426 293.496 539.402 293.442Q540.378 293.389 541.356 293.384Q542.334 293.379 543.31 293.422Q544.287 293.465 545.261 293.555Q546.234 293.646 547.202 293.784Q548.17 293.923 549.13 294.109Q550.089 294.294 551.039 294.527Q551.989 294.76 552.926 295.038Q553.863 295.317 554.785 295.642C560.64 297.694 565.382 301.185 569.082 306.168C578.384 318.694 583.743 335.643 589.824 349.943C598.513 370.375 607.239 390.983 616.755 411.042C596.19 426.719 574.114 431.645 549.421 437.279Z"/>
	<path fill="#EF6E31" transform="scale(0.999267 0.999267)" d="M969.948 248.519C974.26 249.776 991.517 276.233 995.407 281.729C960.152 307.92 923.711 332.742 888.055 358.424C840.346 392.788 793.047 427.988 744.532 461.196C735.587 458.949 726.549 456.734 717.39 455.574C707.102 453.622 695.953 453.384 685.503 451.922C695.359 443.183 706.498 435.76 717.196 428.091L778.345 384.819Q842.192 338.306 906.891 292.987C927.898 278.117 948.633 262.958 969.948 248.519Z"/>
	<path fill="#EF6E31" transform="scale(0.999267 0.999267)" d="M934.029 200.575C938.39 201.945 955.203 227.23 958.942 232.519C933.702 251.55 906.954 268.819 881.234 287.226L658.834 446.51C658.243 446.897 657.546 447.421 656.86 447.647C655.79 448 654.646 448.037 653.624 447.605C647.506 445.019 639.342 420.836 636.586 413.916C662.967 395.606 688.861 376.49 714.961 357.778L855.428 257.027C881.618 238.165 907.426 218.867 934.029 200.575Z"/>
	<path fill="#EF6E31" transform="scale(0.999267 0.999267)" d="M572.411 510.531C580.253 516.482 584.553 527.867 590.77 535.543C598.63 545.248 609.173 552.278 619.358 559.285C515.934 630.264 415.056 704.835 312.605 777.194C309.661 779.29 306.911 781.72 304.124 784.022C296.806 779.785 288.86 777.034 280.935 774.183C282.207 763.758 283.656 753.193 285.571 742.867C303.242 726.773 325.38 714.395 345.024 700.729L398.393 663.456C411.69 654.106 424.87 644.517 438.625 635.844C449.362 629.075 462.122 627.144 472.535 619.474C486.461 609.217 490.981 594.945 493.463 578.612C505.02 584.413 516.144 586.97 529.048 584.642Q530.429 584.392 531.797 584.074Q533.165 583.757 534.515 583.373Q535.866 582.989 537.196 582.539Q538.526 582.089 539.832 581.575Q541.138 581.061 542.418 580.483Q543.698 579.905 544.948 579.266Q546.198 578.626 547.415 577.926Q548.632 577.226 549.813 576.467Q550.994 575.708 552.137 574.892Q553.28 574.077 554.381 573.206Q555.483 572.335 556.54 571.411Q557.598 570.488 558.609 569.513Q559.62 568.539 560.582 567.516Q561.544 566.494 562.455 565.425Q563.366 564.356 564.223 563.244Q565.081 562.133 565.883 560.98C576.96 544.771 575.921 528.865 572.411 510.531Z"/>
	<path fill="#91D1F0" transform="scale(0.999267 0.999267)" d="M1067.33 524.332C1078.71 523.948 1114.15 521.821 1122.57 527.126C1124.65 528.442 1125.23 530.319 1125.72 532.652C1127.79 542.503 1126.44 557.177 1126.44 567.574L1126.44 638.947L1126.44 779.176L1126.51 816.944C1126.59 824.86 1127.04 832.915 1126.7 840.821C1126.52 845.088 1126.25 849.764 1123.75 853.386C1121.68 856.372 1119.41 857.997 1115.85 858.66C1109.54 860.81 1067.27 859.297 1058 859.302C1059.01 858.08 1059.3 856.879 1059.46 855.306C1060.83 842.284 1059.96 828.318 1059.93 815.22L1059.74 740.848L1059.74 605.091C1059.75 582.175 1060.29 559.22 1059.77 536.311C1059.68 532.656 1060.29 527.75 1057.95 524.776Q1062.64 524.636 1067.33 524.332Z"/>
	<path fill="#91D1F0" transform="scale(0.999267 0.999267)" d="M869.496 395.532L949.002 338.521C966.934 325.816 985.135 313.636 1002.47 300.101C1010.32 305.113 1017.13 312.491 1025.37 316.589C1035.98 321.869 1048.29 323.508 1059.65 326.654Q1068.75 329.247 1077.63 332.525Q1086.51 335.803 1095.12 339.746C1159.79 368.781 1212.73 418.249 1241.83 483.375C1246.47 493.769 1251.89 504.656 1254.43 515.784C1254.91 517.926 1255.03 519.116 1254.18 521.151C1254.09 521.047 1254.01 520.928 1253.9 520.839C1249.98 517.601 1154.62 518.381 1142.37 519.01C1140.96 516.801 1139.58 514.61 1137.67 512.794C1133.54 508.853 1127.95 506.534 1122.44 505.328C1106.72 501.886 1075.37 504.198 1058.67 504.554C1058.61 502.525 1058.04 500.748 1057.23 498.905C1054.42 492.486 1047.71 486.727 1041.18 484.363C1029.84 480.264 959.025 480.657 948.824 485.852C940.967 489.853 937.289 498.315 934.634 506.199L922.169 505.863C908.558 466.657 890.637 431.108 869.496 395.532Z"/>
	<path fill="#91D1F0" transform="scale(0.999267 0.999267)" d="M230.424 828.561Q255.105 821.355 279.69 813.824C289.204 810.902 299.29 808.395 308.247 804.039C319.846 798.398 329.738 788.839 340.22 781.393C369.897 760.311 399.256 738.609 429.241 717.984C449.937 740.234 471.71 761.37 493.051 782.989C524.821 815.171 548.661 845.157 593.418 859.494C607.802 864.102 621.891 866.773 637.01 867.301C657.117 868.002 677.371 866.019 697.496 866.013C726.608 866.004 755.757 867.665 784.864 866.392C810.298 865.279 835.707 860.685 861.228 861.925C874.124 862.551 886.555 865.525 897.622 872.342C902.444 875.311 907.076 878.809 912.641 880.245C918.798 881.834 926.758 880.742 933.077 880.537C936.13 888.412 939.917 895.65 948.014 899.254C956.633 903.09 1035.61 902.686 1044.48 899.194C1050.32 896.895 1056.37 890.921 1058.56 885.018C1059.34 882.897 1059.88 880.387 1059.35 878.138C1076.66 878.602 1122.19 882.576 1134.31 871.141C1135.86 869.679 1137.45 867.995 1138.28 866.019C1142.31 862.647 1144.07 857.779 1145.26 852.788C1146.71 846.661 1148.07 836.862 1144.59 831.266C1158.56 831.248 1172.98 830.508 1186.9 831.522C1186.81 837.612 1176.91 846.335 1172.54 850.585C1166.75 856.205 1149.32 873.065 1142.31 875.365C1138.52 884.965 1105.22 902.017 1095.48 906.223C1094.58 906.616 1093.67 906.962 1092.73 907.286C1090.99 908.68 1086.88 908.407 1084.6 908.457C1075.51 908.654 1066.25 908.026 1057.13 907.967L982.77 907.708L668.112 907.876L451.784 907.883L381.535 908.019C369.254 908.028 356.831 908.4 344.564 907.876C298.609 888.111 265.071 864.241 230.424 828.561Z"/>
	<path fill="#1581D0" transform="scale(0.999267 0.999267)" d="M851.364 408.591C860.683 411.849 887.3 469.696 891.508 479.888C895.789 490.256 903.169 515.799 910.06 522.743C915.048 527.77 927.324 526.155 933.789 525.961L933.849 860.741C927.629 861.134 921.507 861.201 915.295 860.643C875.262 833.237 839.119 843.087 794.322 846.082C760.372 848.352 726.616 846.017 692.7 846.733C671.358 847.183 649.379 849.851 628.146 847.257C606.393 844.6 582.492 836.216 564.32 823.889C550.444 814.476 538.592 801.227 526.786 789.401L473.469 735.871C463.681 725.998 454.445 715.629 443.949 706.481C460.92 695.196 477.267 682.812 493.917 671.044L588.925 604.008Q613.747 587.107 637.903 569.265C659.36 578.086 679.262 583.363 702.442 584.755C721.905 612.309 742.017 628.631 774.403 638.898C780.864 640.946 792.296 644.648 798.554 641.136C801.257 639.619 803.531 637.049 804.221 633.971C804.697 631.848 804.262 629.713 802.987 627.952C799.195 622.711 790.825 622.685 785.038 621.803C763.36 618.499 740.431 601.746 726.77 585.044C721.14 578.161 716.754 570.374 711.469 563.225C683.864 565.71 657.895 559.012 633.839 545.514C618.641 536.986 602.442 524.975 597.645 507.358C595.363 498.975 596.16 489.498 600.528 481.903C605.013 474.106 612.96 469.014 621.541 466.783C639.445 462.127 660.584 466.959 678.611 469.296C729.282 475.863 788.983 481.448 827.135 519.466C832.63 524.942 837.949 531.095 842.05 537.674C844.239 541.185 846.316 544.814 848.089 548.552C851.233 555.181 854.563 568.765 861.281 572.16C863.484 573.273 866.606 573.065 868.859 572.225C870.982 571.433 872.516 569.903 873.366 567.807C875.621 562.244 872.629 554.689 870.395 549.578C849.006 500.639 817.711 485.196 770.445 466.718C781.99 457.008 795.183 448.956 807.538 440.299C822.303 429.954 836.614 418.967 851.364 408.591Z"/>
</svg>
